<svg width="166" height="42" viewBox="0 0 166 42" xmlns="http://www.w3.org/2000/svg"><title>applepay</title><g fill="none" fill-rule="evenodd"><path d="M166 5.876c0-.226 0-.45-.002-.674 0-.187-.004-.377-.008-.566a8.277 8.277 0 0 0-.108-1.234 3.982 3.982 0 0 0-1.098-2.172 3.9 3.9 0 0 0-.988-.726 4.063 4.063 0 0 0-1.157-.387 8.254 8.254 0 0 0-1.22-.11 26.053 26.053 0 0 0-.56-.005C160.64 0 160.415 0 160.194 0H5.804c-.22 0-.442 0-.663.002a26.1 26.1 0 0 0-.56.006 8.227 8.227 0 0 0-1.218.11c-.408.074-.79.195-1.16.386A3.932 3.932 0 0 0 .5 2.228c-.19.375-.31.76-.383 1.174A8.55 8.55 0 0 0 .01 4.636c-.005.19-.007.38-.01.566v31.596c.003.19.005.377.01.566.01.412.035.825.106 1.232.074.416.194.8.383 1.176.184.37.427.704.716.996a3.954 3.954 0 0 0 2.146 1.113c.4.075.813.097 1.217.11A72.772 72.772 0 0 0 5.804 42l154.39.002c.22 0 .444 0 .665-.002.185 0 .372-.004.56-.006a8.257 8.257 0 0 0 1.22-.11 3.942 3.942 0 0 0 2.862-2.11c.19-.377.31-.76.38-1.176a8.25 8.25 0 0 0 .108-1.232c.004-.19.008-.377.008-.566.002-.224.002-.448.002-.674V5.876z" fill="#181A20"/><path d="M106.247 16.26l-2.76 7.504c-.17.452-.332.91-.48 1.352-.07.224-.138.434-.206.634h-.05c-.065-.21-.135-.428-.21-.656a26.11 26.11 0 0 0-.457-1.286l-2.95-7.548h-1.578l4.22 10.854c.112.262.13.38.13.43 0 .014-.008.102-.132.434a7.935 7.935 0 0 1-.894 1.664 9.46 9.46 0 0 1-.927 1.11 4.97 4.97 0 0 1-.986.784 9.63 9.63 0 0 1-.936.49l-.16.072.515 1.25.162-.062c.136-.05.388-.164.77-.35.382-.19.81-.492 1.266-.896a6.804 6.804 0 0 0 1.064-1.202c.312-.448.624-.972.928-1.556.304-.582.608-1.244.902-1.97.294-.728.614-1.544.94-2.42l3.408-8.632h-1.578zM94.71 24.23c0 .158-.04.374-.113.634a3.157 3.157 0 0 1-1.04 1.476c-.256.204-.56.366-.904.486-.346.12-.746.18-1.188.18-.266 0-.528-.044-.778-.132a1.854 1.854 0 0 1-1.116-1.058c-.115-.268-.173-.602-.173-.99 0-.632.17-1.148.504-1.524.347-.39.79-.69 1.32-.892a6.835 6.835 0 0 1 1.78-.408 16.714 16.714 0 0 1 1.71-.072v2.3zm1.5 2.306a39.38 39.38 0 0 1-.023-1.376v-4.502c0-.534-.054-1.078-.16-1.62a4.1 4.1 0 0 0-.612-1.506 3.433 3.433 0 0 0-1.248-1.108c-.526-.282-1.21-.426-2.034-.426a6.52 6.52 0 0 0-1.744.232 5.492 5.492 0 0 0-1.633.778l-.12.082.498 1.168.182-.12a4.8 4.8 0 0 1 1.282-.61 4.796 4.796 0 0 1 1.417-.218c.616 0 1.108.112 1.458.332.356.224.626.498.8.822.18.332.298.686.35 1.054.056.382.084.724.084 1.018v.13c-2.193-.01-3.907.356-5.043 1.088-1.194.768-1.8 1.864-1.8 3.25 0 .4.072.802.214 1.2.145.404.36.764.647 1.072.286.31.654.566 1.096.756.442.192.96.288 1.538.288.46 0 .89-.062 1.28-.176a4.292 4.292 0 0 0 2.13-1.404h.06l.135 1.316h1.424l-.04-.21a8.934 8.934 0 0 1-.14-1.31zM84.766 19.09c-.76.636-1.834.96-3.198.96a11.5 11.5 0 0 1-1.054-.048 5.15 5.15 0 0 1-.744-.124V12.99c.195-.036.437-.07.72-.1.36-.04.795-.06 1.293-.06.614 0 1.182.074 1.688.22.5.144.94.358 1.3.636.355.274.635.634.83 1.064.193.436.29.956.29 1.546 0 1.226-.38 2.164-1.125 2.794zm1.36-6.186c-.464-.448-1.058-.794-1.772-1.032-.706-.234-1.556-.354-2.524-.354-.667 0-1.293.032-1.855.098-.556.062-1.072.134-1.536.214l-.15.026v16.2h1.48v-6.824c.497.086 1.067.13 1.697.13.836 0 1.62-.108 2.33-.318a5.17 5.17 0 0 0 1.868-.976c.524-.434.946-.98 1.248-1.622.304-.64.458-1.396.458-2.244 0-.702-.11-1.334-.327-1.878a4.29 4.29 0 0 0-.918-1.42zm-17.392 0c.632-.77 1.06-1.838.944-2.904-.916.038-2.026.612-2.678 1.38-.59.678-1.103 1.768-.96 2.814 1.017.078 2.057-.52 2.693-1.29zm2.632 6.76c-.02-2.302 1.88-3.412 1.968-3.466-1.072-1.56-2.734-1.776-3.326-1.8-1.416-.142-2.766.834-3.484.834s-1.824-.812-3.002-.788c-1.543.022-2.965.898-3.763 2.28-1.598 2.79-.404 6.91 1.158 9.168.764 1.102 1.674 2.344 2.872 2.3 1.154-.046 1.586-.746 2.98-.746 1.39-.002 1.784.744 3 .722 1.238-.028 2.026-1.126 2.786-2.238.874-1.278 1.234-2.522 1.254-2.584-.024-.016-2.414-.926-2.442-3.682z" fill="#FFF"/></g></svg>