<svg width="578" height="550" viewBox="0 0 578 550" xmlns="http://www.w3.org/2000/svg"><title>buildings</title><g fill="none" fill-rule="evenodd"><path fill="#DAE1E2" d="M429 332h25v-8h-25z"/><path d="M436.468 307H429v118h12V311.623c0-2.553-2.028-4.623-4.532-4.623z" fill="#DAE1E2"/><path fill="#DAE1E2" d="M429 349h25v-8h-25zM429 368h25v-8h-25z"/><path fill="#FFC26B" d="M418 502h101v-61H418z"/><path fill="#FF8F73" d="M427 449h92v-8h-92zM519 474.117a15.517 15.517 0 0 0-1.838-.117C508.25 474 501 481.522 501 490.77c0 3.36.954 6.603 2.762 9.376l.556.854 14.682-.01v-26.873z"/><path fill="#FFF" d="M509 502h10v-61h-10z"/><path d="M509 475.928V501l10-.008v-26.875a17.752 17.752 0 0 0-1.966-.117c-2.9 0-5.632.7-8.034 1.928" fill="#DAE1E2"/><path fill="#FF8F73" d="M418 502h22v-61h-22z"/><path fill="#DAE1E2" d="M509 449h10v-8h-10z"/><path d="M421 500h97v-57h-97v57zm-4 4h105v-65H417v65z" fill="#31343F"/><path fill="#FAFAF8" d="M441 427h37v-14h-37z"/><path fill="#C8D0D1" d="M441 427h29v-14h-29z"/><path d="M442 426h33v-10h-33v10zm-4 4h41v-18h-41v18z" fill="#31343F"/><path d="M485.424 396h-53.848c-5.29 0-9.576 4.254-9.576 9.5 0 5.248 4.287 9.5 9.576 9.5h53.848c5.29 0 9.576-4.252 9.576-9.5 0-5.246-4.287-9.5-9.576-9.5" fill="#FAFAF8"/><path d="M478.334 396h-46.668c-5.34 0-9.666 4.254-9.666 9.5 0 5.248 4.327 9.5 9.666 9.5h46.668c5.34 0 9.666-4.252 9.666-9.5 0-5.246-4.327-9.5-9.666-9.5" fill="#FF666E"/><path d="M426.488 408.815c0-4.404 3.546-7.975 7.92-7.975H486c-1.65-2.89-4.74-4.84-8.286-4.84H431.56c-5.28 0-9.56 4.31-9.56 9.626 0 4.572 3.168 8.39 7.41 9.374a7.978 7.978 0 0 1-2.922-6.185" fill="#EC4A69"/><path d="M431.573 398c-4.176 0-7.573 3.364-7.573 7.5s3.397 7.5 7.573 7.5h53.854c4.176 0 7.573-3.364 7.573-7.5s-3.397-7.5-7.573-7.5h-53.854zm53.85 19h-53.845c-6.384 0-11.578-5.16-11.578-11.5s5.194-11.5 11.578-11.5h53.844c6.384 0 11.578 5.16 11.578 11.5s-5.194 11.5-11.578 11.5z" fill="#31343F"/><path fill="#DAE1E2" d="M478 501h30v-9h-30z"/><path d="M480 500h26v-5h-26v5zm-4 4h34v-13h-34v13z" fill="#31343F"/><path fill-opacity=".5" fill="#31343F" d="M485 493h17v-33h-17z"/><path d="M486 491h13v-29h-13v29zm-4 4h21v-37h-21v37z" fill="#31343F"/><path fill="#BCDCF6" d="M429 485h41v-29h-41z"/><path fill="#FF8F73" d="M429 489h42v-5h-42z"/><path fill-opacity=".246" fill="#3993DD" d="M429 485h10v-29h-10z"/><path d="M533.06 486.457c-2.28-5.296-6.827-7.457-13.046-7.457-8.292 0-15.014 6.606-15.014 14.752a14.5 14.5 0 0 0 2.564 8.248l37.073-.028a9.163 9.163 0 0 0 1.363-4.818c0-5.15-4.248-9.324-9.49-9.324a9.66 9.66 0 0 0-3.02.482l-.43-1.855z" fill="#7DC98E"/><path d="M519.846 479c-6.355 0-11.757 4.08-13.846 9.792 1.2 6.934 7.148 12.208 14.323 12.208 3.94 0 7.51-1.596 10.13-4.177.636.126 1.293.196 1.964.196 4.43 0 8.19-2.883 9.583-6.897a9.215 9.215 0 0 0-5.912-2.143 9.21 9.21 0 0 0-2.973.49l-.425-1.886c-2.244-5.386-6.72-7.584-12.844-7.584" fill="#A5E19C"/><path d="M431 483h37v-25h-37v25zm-4 4h45v-33h-45v33zM520.005 480c-7.17 0-13.005 5.72-13.005 12.75 0 2.21.573 4.35 1.667 6.25l34.757-.026c.378-.89.576-1.85.576-2.824 0-4.04-3.352-7.326-7.472-7.326-2.55 0-4.9 1.257-6.285 3.362l-3.415-2.16a11.46 11.46 0 0 1 4.305-3.88C528.8 482.36 524.61 480 520.005 480zm-13.493 23l-.603-.88a16.474 16.474 0 0 1-2.91-9.367c0-9.237 7.635-16.753 17.02-16.753 6.362 0 12.12 3.457 15.05 8.92.47-.058.946-.087 1.426-.087 6.343 0 11.504 5.08 11.504 11.323 0 2.067-.57 4.09-1.654 5.853l-.59.96-39.244.03z" fill="#31343F"/><path d="M520.782 427H413v14h113v-8.78a5.22 5.22 0 0 0-5.218-5.22" fill="#FAFAF8"/><path d="M510.053 427H413v14h102v-9.028c0-2.746-2.215-4.972-4.947-4.972" fill-opacity=".5" fill="#3993DD"/><path fill-opacity=".151" fill="#064971" d="M413 441h25v-14h-25z"/><path d="M414 439h109v-6.78a3.224 3.224 0 0 0-3.218-3.22H414v10zm113 4H410v-18h109.782c3.98 0 7.218 3.24 7.218 7.22V443zM406 504h173v-4H406zM480 315h-4.043v-40.27c0-.925-.75-1.676-1.67-1.676h-9.653l-42.59 31.4v8.683H418v-10.735L463.307 269h10.98c3.15 0 5.713 2.57 5.713 5.73V315zM86.326 465l-3.882-3.898A11.75 11.75 0 0 1 79 452.754c0-3.153 1.223-6.118 3.444-8.348l40.23-40.39c4.004-4.02 10.52-4.02 14.525 0l15.8 16.643-2.87 2.746-15.768-16.61c-2.426-2.432-6.426-2.432-8.886.034l-40.228 40.39a7.79 7.79 0 0 0-2.282 5.534c0 2.09.81 4.055 2.282 5.533l1.078 1.083 25.827-25.93 2.804 2.814L86.327 465z" fill="#31343F"/><path d="M122.904 428L120 425.16l6.608-6.468a5.932 5.932 0 0 1 4.175-1.692c1.578 0 3.06.602 4.175 1.692l6.042 5.912-2.903 2.84-6.042-5.91c-.68-.665-1.863-.665-2.542 0l-6.61 6.466z" fill="#31343F"/><path d="M345 256h27" fill="#FFF"/><path fill="#3C628F" d="M345 258h27v-4h-27z"/><path d="M341.906 205h-35.322L244 273.223V511h102V209.08a4.087 4.087 0 0 0-4.094-4.08" fill-opacity=".503" fill="#3993DD"/><path d="M341.066 205H334v292.028L345 511V209.08c0-2.253-1.76-4.08-3.934-4.08" fill="#FFF"/><path d="M262 511h-18V406l13.707.116c2.377.02 4.293 1.96 4.293 4.348V511z" fill="#3993DD"/><path d="M245 508h98V208.082c0-1.148-.938-2.082-2.09-2.082h-34.443L245 273v235zm102 4H241V271.446L304.7 202h36.203c3.36 0 6.097 2.725 6.097 6.076V512zM66 524h232v-4H66zM474 550h33v-4h-33zM527 550h10v-4h-10zM236 550h7v-4h-7z" fill="#31343F"/><path fill="#FF666E" d="M152 522h100V396H152z"/><path fill="#FFF" d="M152 522h8V396h-8z"/><path d="M195.006 508.105c-.385 0-.763.032-1.136.078-1.71-6.98-8.092-12.183-15.685-12.183-5.226 0-9.996 2.422-13.03 6.535-.937-.236-1.91-.36-2.897-.36-5.175 0-9.69 3.34-11.218 8.106-3.432.632-6.04 3.604-6.04 7.17 0 1.217.31 2.422.897 3.486l.51.925h41.036l.074.14h14.978l.502-.958A8.683 8.683 0 0 0 204 516.98c0-4.895-4.035-8.875-8.994-8.875M245 522h7V396h-7z" fill="#EC4A69"/><path fill="#EC4A69" d="M152 402h100v-6H152zM237 432h10v-4h-10zM216 456h10v-4h-10zM207 511h10v-4h-10zM203 456h10v-4h-10zM208 461h10v-4h-10zM205 432h10v-4h-10zM176 411h10v-4h-10zM242 424h5v-4h-5zM239 470h9v-4h-9zM239 508h9v-4h-9zM242 477h5v-4h-5z"/><path fill="#C5D0D1" d="M152 402h8v-6h-8z"/><path d="M154 519h96V398h-96v121zm-4 4h104V394H150v129z" fill="#31343F"/><path d="M259 357H144v35.726c0 1.807 1.487 3.274 3.32 3.274h108.36c1.833 0 3.32-1.467 3.32-3.274V357z" fill="#FFF"/><path d="M260 362H159.674c-3.134 0-5.674 2.567-5.674 5.735v25.293c0 1.642 1.316 2.972 2.94 2.972h100.12c1.624 0 2.94-1.33 2.94-2.972V362z" fill="#FFB473"/><path d="M147 358v33.7c0 .716.592 1.3 1.32 1.3h108.36a1.31 1.31 0 0 0 1.32-1.3V358H147zm109.68 39H148.32c-2.933 0-5.32-2.357-5.32-5.253V354h119v37.747c0 2.896-2.387 5.253-5.32 5.253z" fill="#31343F"/><path d="M280 509h66V324h-25.344c-2.743 0-4.968 2.183-4.968 4.874v34.387h-30.553c-2.836 0-5.135 2.256-5.135 5.038V509z" fill="#3993DD"/><path fill="#FF515C" d="M165 369h14v-20h-14z"/><path d="M168 368h10v-16h-10v16zm-4 4h18v-24h-18v24z" fill="#31343F"/><path fill="#FF515C" d="M165 341h14v-8h-14z"/><path d="M168 340h10v-4h-10v4zm-4 4h18v-12h-18v12z" fill="#31343F"/><path fill="#C8D0D1" d="M169 349h6v-8h-6z"/><path d="M171 348h2v-4h-2v4zm-4 4h10v-12h-10v12z" fill="#31343F"/><path fill="#ECE7F2" d="M333.417 317v29.82H298V548h131V317z"/><path fill="#FFF" d="M333 347h6v-30h-6zM298 548h6V347h-6z"/><path fill="#C8C8DD" d="M333 324h96v-7h-96zM314 398h98v-7h-98zM314 452h98v-7h-98zM314 506h98v-7h-98zM336.702 355H298v-22h39.78c3.435 0 6.22 2.866 6.22 6.4v8.092c0 4.146-3.268 7.508-7.298 7.508"/><path fill="#FFF" d="M418 547h10V324h-10z"/><path fill="#DAE1E2" d="M298 354h6v-7h-6zM418 324h10v-7h-10zM333 324h6v-7h-6z"/><path d="M300 546h127V319h-91.584v29.82H300V546zm131 4H296V344.82h35.418V315H431v235z" fill="#3C628F"/><path d="M300 546h127V319h-91.584v29.82H300V546zm131 4H296V344.82h35.418V315H431v235z" fill="#31343F"/><path d="M287.514 332h46.972c1.94 0 3.514 1.5 3.514 3.352v7.296c0 1.85-1.573 3.352-3.514 3.352h-46.972c-1.94 0-3.514-1.5-3.514-3.352v-7.296c0-1.852 1.573-3.352 3.514-3.352" fill="#FFF"/><path d="M293.482 337h35.036c1.37 0 2.482 1.124 2.482 2.51v4.98c0 1.385-1.11 2.51-2.482 2.51h-35.036c-1.37 0-2.482-1.125-2.482-2.51v-4.98c0-1.386 1.11-2.51 2.482-2.51" fill="#FFD196"/><path d="M288.528 334c-.843 0-1.528.64-1.528 1.428v7.144c0 .787.685 1.428 1.528 1.428h46.944c.843 0 1.528-.64 1.528-1.428v-7.144c0-.787-.685-1.428-1.528-1.428h-46.944zm46.97 14h-46.997c-3.032 0-5.5-2.38-5.5-5.308v-7.384c0-2.927 2.468-5.308 5.5-5.308h47c3.033 0 5.5 2.38 5.5 5.308v7.384c0 2.927-2.467 5.308-5.5 5.308zM86.02 521H82v-11.997c0-2.76 2.27-5.003 5.057-5.003H131v3.978H87.057c-.57 0-1.036.46-1.036 1.025V521z" fill="#31343F"/><path fill="#31343F" d="M89 507h4v-50h-4zM97.144 521H93v-9h22v3.958H97.144z"/><path fill="#31343F" d="M100 515h4v-8h-4zM127 508h-22v-36h22v8.917h-3.923v-4.924h-14.154v28.014h14.154V491.96H127z"/><path d="M125 450v-5.97c0-1.674 1.283-3.03 2.865-3.03H133" fill="#FFF"/><path d="M128.032 449H124v-5.36c0-2.56 2.187-4.64 4.876-4.64H134v3.836h-5.124c-.466 0-.844.36-.844.803V449z" fill="#31343F"/><path d="M378.782 227H345v75h38v-70.87c0-2.28-1.888-4.13-4.218-4.13" fill="#FFD196"/><path d="M378.744 227H369v75h14v-70.87c0-2.28-1.905-4.13-4.256-4.13" fill="#FFF"/><path d="M272 269v184" fill="#31343F"/><path fill="#064971" d="M270 453h4V269h-4z"/><path d="M272 471v27" fill="#FFF"/><path fill="#31343F" d="M270 498h4v-27h-4z"/><path fill="#F0A48D" d="M345 302h8v-75h-8zM353 258h11v-8h-11zM353 272h11v-8h-11zM353 286h11v-8h-11z"/><path d="M348 300h34v-68.858c0-1.18-.984-2.142-2.193-2.142H348v71zm38 4h-42v-79h35.76c3.44 0 6.24 2.745 6.24 6.12V304zM219.036 343L219 328.88 242.05 303l2.95 2.704-22.02 24.724.03 12.562zM219.018 355l-.018-4.986 3.982-.014.018 4.986z" fill="#31343F"/><path d="M300 532.63c.888.233 1.818.37 2.78.37.747 0 1.476-.075 2.18-.218v-10.23c.19.007.38.016.57.016 1.15 0 2.27-.11 3.36-.308a8.66 8.66 0 0 0 3.03 1.957c4.485 1.712 9.522-.498 11.25-4.937 1.022-2.618.655-5.423-.73-7.638a18.054 18.054 0 0 0 1.56-7.358c0-10.097-8.268-18.284-18.47-18.284a18.63 18.63 0 0 0-5.53.835v45.794z" fill="#C8C8DD"/><path fill="#ADEFFF" d="M167 440h12v-24h-12z"/><path d="M169 437h8v-20h-8v20zm-4 4h16v-28h-16v28z" fill="#31343F"/><path fill="#FFC97C" d="M164 446h18v-6h-18z"/><path d="M166 443h14v-2h-14v2zm-4 4h22v-10h-22v10z" fill="#31343F"/><path fill="#ADEFFF" d="M195 439h12v-24h-12z"/><path d="M197 437h8v-20h-8v20zm-4 4h16v-28h-16v28z" fill="#31343F"/><path fill="#FFC97C" d="M192 446h18v-6h-18z"/><path d="M194 443h14v-2h-14v2zm-4 4h22v-10h-22v10z" fill="#31343F"/><path fill="#ADEFFF" d="M223 439h12v-24h-12z"/><path d="M224 437h8v-20h-8v20zm-4 4h16v-28h-16v28z" fill="#31343F"/><path fill="#FFC97C" d="M220 446h18v-6h-18z"/><path d="M221 443h14v-2h-14v2zm-4 4h22v-10h-22v10z" fill="#31343F"/><path fill="#ADEFFF" d="M167 490h12v-24h-12z"/><path d="M169 488h8v-20h-8v20zm-4 4h16v-28h-16v28z" fill="#31343F"/><path fill="#FFC97C" d="M164 497h18v-6h-18z"/><path d="M166 494h14v-2h-14v2zm-4 4h22v-10h-22v10z" fill="#31343F"/><path fill="#ADEFFF" d="M195 490h12v-24h-12z"/><path d="M197 488h8v-20h-8v20zm-4 4h16v-28h-16v28z" fill="#31343F"/><path fill="#FFC97C" d="M192 497h18v-6h-18z"/><path d="M194 494h14v-2h-14v2zm-4 4h22v-10h-22v10z" fill="#31343F"/><path fill="#ADEFFF" d="M223 490h12v-24h-12z"/><path d="M224 488h8v-20h-8v20zm-4 4h16v-28h-16v28z" fill="#31343F"/><path fill="#FFC97C" d="M220 497h18v-6h-18z"/><path d="M221 494h14v-2h-14v2zm-4 4h22v-10h-22v10z" fill="#31343F"/><path fill="#FFF" d="M321 391h18v-28h-18z"/><path d="M323 389h14v-24h-14v24zm-4 4h22v-32h-22v32z" fill="#31343F"/><path d="M321 377h18" fill="#FFF"/><path fill="#31343F" d="M321 379h18v-4h-18z"/><path fill="#FFF" d="M354 391h18v-28h-18z"/><path d="M357 389h14v-24h-14v24zm-4 4h22v-32h-22v32z" fill="#31343F"/><path d="M354 377h18" fill="#FFF"/><path fill="#31343F" d="M354 379h18v-4h-18z"/><path fill="#FFF" d="M388 391h18v-28h-18z"/><path d="M389 389h14v-24h-14v24zm-4 4h22v-32h-22v32z" fill="#31343F"/><path d="M388 377h18" fill="#FFF"/><path fill="#31343F" d="M388 379h18v-4h-18z"/><path d="M310 391h106" fill="#FFF"/><path fill="#31343F" d="M310 393h106v-4H310z"/><path fill="#FFF" d="M321 445h18v-28h-18z"/><path d="M323 443h14v-24h-14v24zm-4 4h22v-32h-22v32z" fill="#31343F"/><path d="M321 431h18" fill="#FFF"/><path fill="#31343F" d="M321 433h18v-4h-18z"/><path fill="#FFF" d="M354 445h18v-28h-18z"/><path d="M357 443h14v-24h-14v24zm-4 4h22v-32h-22v32z" fill="#31343F"/><path d="M354 431h18" fill="#FFF"/><path fill="#31343F" d="M354 433h18v-4h-18z"/><path fill="#FFF" d="M388 445h18v-28h-18z"/><path d="M389 443h14v-24h-14v24zm-4 4h22v-32h-22v32z" fill="#31343F"/><path d="M388 431h18" fill="#FFF"/><path fill="#31343F" d="M388 433h18v-4h-18z"/><path d="M310 445h106" fill="#FFF"/><path fill="#31343F" d="M310 447h106v-4H310z"/><path fill="#FFF" d="M321 499h18v-28h-18z"/><path d="M323 496h14v-24h-14v24zm-4 4h22v-32h-22v32z" fill="#31343F"/><path d="M321 484h18" fill="#FFF"/><path fill="#31343F" d="M321 487h18v-4h-18z"/><path fill="#FFF" d="M354 499h18v-28h-18z"/><path d="M357 496h14v-24h-14v24zm-4 4h22v-32h-22v32z" fill="#31343F"/><path d="M354 484h18" fill="#FFF"/><path fill="#31343F" d="M354 487h18v-4h-18z"/><path fill="#FFF" d="M388 499h18v-28h-18z"/><path d="M389 496h14v-24h-14v24zm-4 4h22v-32h-22v32z" fill="#31343F"/><path d="M388 484h18" fill="#FFF"/><path fill="#31343F" d="M388 487h18v-4h-18z"/><path d="M310 499h106" fill="#FFF"/><path fill="#31343F" d="M310 501h106v-4H310z"/><path d="M345 258h27" fill="#FFF"/><path fill="#31343F" d="M345 260h27v-4h-27z"/><path d="M345 272h27" fill="#FFF"/><path fill="#31343F" d="M345 274h27v-4h-27z"/><path d="M345 286h27" fill="#FFF"/><path fill="#31343F" d="M345 288h27v-4h-27z"/><path d="M420.442 526c-5.258 0-9.86 2.775-12.42 6.91-.396-.05-.797-.08-1.207-.08-5.412 0-9.815 4.344-9.815 9.687 0 1.532.38 3.067 1.095 4.435l.548 1.048h34.186l.547-1.048a14.065 14.065 0 0 0 1.623-6.58c0-7.924-6.53-14.372-14.558-14.372" fill="#C8C8DD"/><path d="M303.82 314H300v-9.984c0-2.214 1.638-4.016 3.65-4.016H311v4.2h-7.18v9.8zM286.82 314H283v-9.984c0-2.214 1.638-4.016 3.65-4.016H294v4.2h-7.18v9.8zM319.82 288H316v-9.985c0-2.214 1.638-4.015 3.65-4.015H327v4.202h-7.18V288zM303.82 288H300v-9.985c0-2.214 1.638-4.015 3.65-4.015H311v4.202h-7.18V288zM286.82 288H283v-9.985c0-2.214 1.638-4.015 3.65-4.015H294v4.202h-7.18V288zM319.82 264H316v-9.985c0-2.214 1.638-4.015 3.65-4.015H327v4.202h-7.18V264zM303.82 264H300v-9.985c0-2.214 1.638-4.015 3.65-4.015H311v4.202h-7.18V264zM286.82 264H283v-9.985c0-2.214 1.638-4.015 3.65-4.015H294v4.202h-7.18V264zM319.82 239H316v-9.985c0-2.214 1.638-4.015 3.65-4.015H327v4.202h-7.18V239z" fill="#064971"/><path d="M404.836 547a7.544 7.544 0 0 1-.836-3.454c0-4.168 3.358-7.546 7.5-7.546 4.142 0 7.5 3.378 7.5 7.546a7.554 7.554 0 0 1-.837 3.454h-13.327z" fill="#A5E19C"/><path d="M405.204 545h10.59a5.44 5.44 0 0 0 .206-1.485c0-3.04-2.467-5.515-5.5-5.515-3.032 0-5.5 2.474-5.5 5.515 0 .508.07 1.004.204 1.485zm13.192 4h-15.793l-.544-1.062a9.5 9.5 0 0 1-1.06-4.377c0-5.27 4.262-9.56 9.5-9.56s9.5 4.29 9.5 9.56a9.516 9.516 0 0 1-1.06 4.378l-.544 1.062z" fill="#31343F"/><path d="M414.395 547a12.15 12.15 0 0 1-1.395-5.65c0-6.822 5.596-12.35 12.5-12.35s12.5 5.528 12.5 12.35c0 2.037-.51 3.955-1.394 5.65h-22.21z" fill="#7DC98E"/><path d="M414.684 545h19.632c.455-1.17.684-2.395.684-3.658 0-5.703-4.71-10.342-10.5-10.342s-10.5 4.64-10.5 10.342c0 1.263.23 2.488.684 3.658zm22.138 4H412.18l-.562-1.076a14.074 14.074 0 0 1-1.618-6.57c0-7.915 6.505-14.354 14.5-14.354 7.996 0 14.5 6.44 14.5 14.353 0 2.302-.544 4.513-1.617 6.57l-.56 1.077z" fill="#31343F"/><path d="M355.942 530.508l-.21.01C354.546 522.863 348 517 340.08 517c-7.227 0-13.326 4.878-15.236 11.55 0 0-2.6-.512-3.988-.512-8.76 0-15.858 7.164-15.858 16 0 1.732.272 3.4.777 4.962h60.466a12.193 12.193 0 0 0 1.757-6.327c0-6.72-5.4-12.165-12.058-12.165" fill="#C8C8DD"/><path d="M180.837 520a7.544 7.544 0 0 1-.837-3.454c0-4.168 3.358-7.546 7.5-7.546 4.142 0 7.5 3.378 7.5 7.546a7.553 7.553 0 0 1-.836 3.454h-13.327z" fill="#7DC98E"/><path d="M182.204 519h10.592c.136-.48.204-.977.204-1.485 0-3.04-2.467-5.515-5.5-5.515s-5.5 2.474-5.5 5.515c0 .508.068 1.004.204 1.485zm13.193 4h-15.794l-.543-1.062a9.504 9.504 0 0 1-1.06-4.377c0-5.27 4.262-9.56 9.5-9.56s9.5 4.29 9.5 9.56a9.51 9.51 0 0 1-1.06 4.378l-.543 1.062z" fill="#31343F"/><path fill-opacity=".5" fill="#31343F" d="M375 345h10v-12h-10z"/><path d="M377 342h6v-8h-6v8zm-4 4h14v-16h-14v16z" fill="#31343F"/><path d="M318 495.06c0-10.526-8.507-19.06-19-19.06s-19 8.534-19 19.06a19.04 19.04 0 0 0 6.114 14.005h-.004a11.138 11.138 0 0 0-1.065 4.773c0 6.165 4.98 11.162 11.126 11.162.77 0 1.52-.078 2.242-.227V514.11c.196.004.392.013.588.013 1.18 0 2.334-.113 3.454-.32a8.928 8.928 0 0 0 3.12 2.04c4.612 1.786 9.794-.52 11.573-5.146a8.986 8.986 0 0 0-.754-7.964A19.04 19.04 0 0 0 318 495.06" fill="#A5E19C"/><path d="M318 495.513c0-6.34-2.998-11.97-7.633-15.513a18.14 18.14 0 0 1 2.7 9.553 18.15 18.15 0 0 1-2.194 8.683 6.78 6.78 0 0 1 2.27 5.076c0 3.734-2.984 6.762-6.666 6.762-2.453 0-4.59-1.348-5.748-3.35-1.715.558-3.542.863-5.44.863-6.505 0-12.192-3.548-15.29-8.84a19.454 19.454 0 0 0 5.89 11.026h-.005a11.448 11.448 0 0 0-1.072 4.86c0 6.28 5.015 11.367 11.203 11.367.774 0 1.53-.08 2.26-.23v-10.86c.195.005.392.014.59.014 1.19 0 2.35-.115 3.48-.326.865.882 1.92 1.6 3.14 2.08 4.645 1.816 9.863-.532 11.655-5.243a9.24 9.24 0 0 0-.758-8.11 19.573 19.573 0 0 0 1.618-7.812" fill="#7DC98E"/><path d="M298 532v-18" fill="#FFF"/><path fill="#31343F" d="M296 532h4v-18h-4z"/><path d="M302.16 512.198l.7.715c.692.71 1.508 1.25 2.423 1.612 3.582 1.407 7.617-.418 8.998-4.065 1.382-3.648-.408-7.76-3.99-9.17a6.91 6.91 0 0 0-2.722-.473l-.127-4.045a10.61 10.61 0 0 1 4.28.744c1.058.415 2.015.98 2.86 1.662.28-1.255.42-2.545.42-3.857 0-9.55-7.627-17.32-17-17.32-9.373 0-17 7.77-17 17.32 0 9.552 7.627 17.323 17 17.323.835 0 2.578-.22 3.18-.306l.98-.14zm5.628 6.802a10.857 10.857 0 0 1-6.992-2.575c-.823.1-2 .223-2.795.223-11.58 0-21-9.566-21-21.325 0-11.757 9.42-21.323 21-21.323s21 9.566 21 21.323a21.47 21.47 0 0 1-1.39 7.642 11.245 11.245 0 0 1 .404 8.92c-1.675 4.406-5.83 7.115-10.226 7.115z" fill="#31343F"/><path d="M295.486 526C288.6 526 283 520.344 283 513.392c0-1.885.403-3.7 1.197-5.392l3.515 1.682a8.67 8.67 0 0 0-.822 3.71c0 4.786 3.856 8.68 8.596 8.68a8.53 8.53 0 0 0 1.734-.177l.78 3.85c-.822.17-1.67.255-2.514.255" fill="#31343F"/><path d="M343.133 529.086l-.207.01C341.76 521.68 335.32 516 327.526 516c-7.113 0-13.115 4.725-14.995 11.188 0 0-2.56-.494-3.923-.494-8.62 0-15.607 6.94-15.607 15.5 0 1.677.268 3.293.765 4.806h59.506a11.664 11.664 0 0 0 1.73-6.13c0-6.508-5.312-11.784-11.867-11.784" fill="#7DC98E"/><path d="M296 534.298c3.417 6.937 10.456 11.702 18.592 11.702 8.684 0 16.122-5.428 19.234-13.136 4.186-.443 7.533-3.73 8.174-7.93-2.51-5.282-7.816-8.934-13.982-8.934-7.087 0-13.068 4.81-14.94 11.39 0 0-2.552-.503-3.91-.503-5.556 0-10.417 2.964-13.168 7.41" fill="#A5E19C"/><path d="M341.462 543c5.55 0 10.094-4.288 10.538-9.74a12.03 12.03 0 0 0-7.686-3.26c.054.506.09 1.02.09 1.54 0 4.528-2.116 8.554-5.404 11.16.792.19 1.613.3 2.462.3" fill="#9CE192"/><path d="M355.393 550h-62.078l-.45-1.412a18.38 18.38 0 0 1-.865-5.584c0-9.927 7.9-18.004 17.608-18.004 4.08 0 8.057 1.46 11.2 4.11l-2.547 3.16a13.442 13.442 0 0 0-8.652-3.177c-7.502 0-13.605 6.24-13.605 13.91 0 .983.1 1.955.296 2.904h56.775c.605-1.327.922-2.782.922-4.264 0-5.562-4.425-10.087-9.865-10.087v-4.093c7.647 0 13.868 6.36 13.868 14.18 0 2.61-.7 5.16-2.022 7.376l-.585.98z" fill="#31343F"/><path d="M342.08 542l-3.276-2.195a13.36 13.36 0 0 0 2.254-7.45c0-7.394-6.01-13.41-13.398-13.41-5.933 0-11.228 3.98-12.872 9.68L311 527.53c2.13-7.378 8.98-12.53 16.66-12.53 9.56 0 17.34 7.786 17.34 17.356 0 3.452-1.01 6.786-2.92 9.644M152 367h4v-10h-4zM152 395h4v-17h-4zM162 395h4v-7h-4zM188 383h4v-26h-4zM199 378h4v-21h-4zM241 378h4v-15h-4zM209 389h4v-32h-4zM220 389h4v-32h-4zM231 389h4v-32h-4zM38 524h16v-4H38zM475 388h4v-26h-4zM475 333h4v-10h-4zM429 334h32v-4h-32zM429 352h32v-4h-32zM429 369h32v-4h-32zM469 271h4v-16h-4zM333 206h4v-14h-4zM320 206h4v-14h-4z" fill="#31343F"/><path d="M324.868 301h107.264c1.584 0 2.868 1.303 2.868 2.91v10.18c0 1.607-1.284 2.91-2.868 2.91H324.868c-1.584 0-2.868-1.303-2.868-2.91v-10.18c0-1.607 1.284-2.91 2.868-2.91" fill="#FFF"/><path d="M331.12 307h91.76c1.172 0 2.12.936 2.12 2.09v5.82c0 1.154-.948 2.09-2.12 2.09h-91.76c-1.17 0-2.12-.936-2.12-2.09v-5.82c0-1.154.95-2.09 2.12-2.09" fill="#FFD196"/><path d="M325.87 303c-.48 0-.87.397-.87.885v10.23c0 .487.39.885.87.885h107.26c.48 0 .87-.398.87-.885v-10.23a.878.878 0 0 0-.87-.885H325.87zm107.262 16H325.868c-2.684 0-4.868-2.208-4.868-4.923v-10.154c0-2.715 2.184-4.923 4.868-4.923h107.264c2.685 0 4.868 2.208 4.868 4.923v10.154c0 2.715-2.183 4.923-4.868 4.923zM152 490v24M150 514h4v-24h-4z" fill="#31343F"/><path d="M152 493c-6.627 0-12-5.306-12-11.85v-17.3c0-6.545 5.373-11.85 12-11.85s12 5.305 12 11.85v17.3c0 6.544-5.373 11.85-12 11.85" fill="#7DC98E"/><path d="M149 486c-4.97 0-9-3.926-9-8.77v-16.46c0-4.845 4.03-8.77 9-8.77s9 3.925 9 8.77v16.46c0 4.844-4.03 8.77-9 8.77" fill="#A5E19C"/><path d="M152 454c-5.514 0-10 4.418-10 9.848v17.303c0 5.432 4.486 9.85 10 9.85s10-4.418 10-9.85V463.85c0-5.43-4.486-9.848-10-9.848m0 41c-7.72 0-14-6.214-14-13.852V463.85c0-7.636 6.28-13.85 14-13.85s14 6.214 14 13.85v17.298c0 7.638-6.28 13.852-14 13.852" fill="#31343F"/><path d="M141.5 473s-5.5-2.588-5.5-5.78v-8.44c0-3.192 2.463-5.78 5.5-5.78 3.038 0 5.5 2.588 5.5 5.78v2.255" fill="#A5E19C"/><path d="M141.5 475c-4.135 0-7.5-3.49-7.5-7.782v-8.438c0-4.29 3.365-7.78 7.5-7.78 4.136 0 7.5 3.49 7.5 7.78v2.255h-3.857v-2.255c0-2.083-1.634-3.778-3.643-3.778-2.01 0-3.643 1.695-3.643 3.778v8.438c0 2.085 1.634 3.78 3.643 3.78V475z" fill="#31343F"/><path d="M556.143 487.624A5.483 5.483 0 0 1 552.5 489a5.496 5.496 0 0 1-5.5-5.49v-8.018a5.496 5.496 0 0 1 5.5-5.492c3.037 0 5.5 2.46 5.5 5.492v2.14l-1.857 9.992z" fill="#7DC98E"/><path d="M552.5 491c-4.135 0-7.5-3.36-7.5-7.486v-8.028c0-4.128 3.365-7.486 7.5-7.486s7.5 3.358 7.5 7.486v2.144h-3.98v-2.144a3.52 3.52 0 0 0-7.04 0v8.028a3.52 3.52 0 0 0 5.85 2.634l2.637 2.975A7.494 7.494 0 0 1 552.5 491" fill="#31343F"/><path d="M555 479c-7.18 0-13-5.694-13-12.718v-18.564c0-7.024 5.82-12.718 13-12.718s13 5.694 13 12.718v18.564c0 7.024-5.82 12.718-13 12.718" fill="#7DC98E"/><path d="M551.123 470h-.246c-4.903 0-8.877-4.08-8.877-9.112v-16.775c0-5.032 3.974-9.113 8.877-9.113h.246c4.903 0 8.877 4.08 8.877 9.113v16.775c0 5.032-3.974 9.112-8.877 9.112" fill="#A5E19C"/><path d="M555 437c-6.065 0-11 4.804-11 10.71v18.58c0 5.906 4.935 10.71 11 10.71s11-4.804 11-10.71v-18.58c0-5.906-4.935-10.71-11-10.71m0 44c-8.27 0-15-6.606-15-14.724v-18.552c0-8.12 6.73-14.724 15-14.724s15 6.605 15 14.724v18.552c0 8.118-6.73 14.724-15 14.724" fill="#31343F"/><path d="M556 480v22" fill="#FFF"/><path fill="#31343F" d="M554 502h4v-22h-4z"/><path d="M563.5 455c3.59 0 6.5-2.847 6.5-6.358v-9.283c0-3.512-2.91-6.36-6.5-6.36s-6.5-.093-6.5 3.42l6.108 5.448L563.5 455z" fill="#7DC98E"/><path d="M566 439a5 5 0 1 1-10 0 5 5 0 0 1 10 0" fill="#A5E19C"/><path d="M563.5 457v-3.93c2.48 0 4.497-1.98 4.497-4.413v-9.314c0-2.433-2.016-4.414-4.497-4.414-2.48 0-4.497 1.98-4.497 4.413v2.488H555v-2.487c0-4.6 3.814-8.343 8.5-8.343 4.687 0 8.5 3.743 8.5 8.343v9.314c0 4.6-3.813 8.343-8.5 8.343M555 466c-4.963 0-9-4.037-9-9h3.988a5.018 5.018 0 0 0 5.012 5.012V466zM445.79 477l-2.79-2.79L462.21 455l2.79 2.79zM455.83 479l-2.83-2.83 8.17-8.17 2.83 2.83z" fill="#31343F"/><path d="M260.865 337h-6.73a3.13 3.13 0 0 1-3.135-3.123v-30.754a3.13 3.13 0 0 1 3.135-3.123h6.73a3.13 3.13 0 0 1 3.135 3.123v30.754a3.13 3.13 0 0 1-3.135 3.123M261.277 292h-7.554c-1.504 0-2.723-1.164-2.723-2.6v-5.8c0-1.435 1.22-2.6 2.723-2.6h7.554c1.504 0 2.723 1.165 2.723 2.6v5.8c0 1.436-1.22 2.6-2.723 2.6" fill="#3993DD"/><path d="M170.318 496c-5.7 0-10.69 2.95-13.435 7.367h-.002a11.177 11.177 0 0 0-3.974-.727c-5.32 0-9.75 3.693-10.717 8.58h-.066c-3.383 0-6.124 2.66-6.124 5.943 0 1.027.27 1.995.74 2.837h46.534c1.69-2.43 2.726-5.63 2.726-8.78 0-8.407-7.02-15.22-15.682-15.22" fill="#7DC98E"/><path d="M169.885 496c-5.542 0-10.395 2.973-13.065 7.42h-.002a10.538 10.538 0 0 0-3.866-.732c-5.17 0-9.48 3.718-10.42 8.64h-.064a5.92 5.92 0 0 0-4.468 2.038 9.68 9.68 0 0 0 6.96 2.95c3.16 0 5.96-1.52 7.74-3.865 2.836 3.962 7.45 6.55 12.676 6.55 8.63 0 15.624-7.03 15.624-15.704 0-.928-.096-1.832-.25-2.716-2.766-2.825-6.61-4.58-10.865-4.58" fill="#A5E19C"/><path d="M135.564 523l-.576-1.03a7.776 7.776 0 0 1-.988-3.787c0-4.373 3.654-7.93 8.145-7.93 2.653 0 5.147 1.264 6.673 3.383l-3.32 2.265a4.132 4.132 0 0 0-3.353-1.7c-2.255 0-4.09 1.787-4.09 3.983 0 .294.033.586.098.87l43.966-.002a13.907 13.907 0 0 0 1.826-6.824c0-7.322-6.12-13.278-13.638-13.278-4.822 0-9.19 2.403-11.685 6.43l-3.472-2.042c3.238-5.22 8.903-8.336 15.158-8.336 9.755 0 17.692 7.728 17.692 17.226 0 3.482-1.12 7.09-3.07 9.904l-.603.87h-48.763z" fill="#31343F"/><path d="M143.938 512l-3.938-.748c1.153-5.94 6.434-10.252 12.557-10.252 4.144 0 8.047 2 10.443 5.35l-3.273 2.29a8.825 8.825 0 0 0-7.17-3.673c-4.203 0-7.828 2.958-8.62 7.033M257 550h207v-4H257z" fill="#31343F"/><g><path d="M76.544 2C69.832 2 64.134 6.314 62 12.332c1.768-.71 3.69-1.11 5.712-1.11 8.536 0 15.456 6.964 15.456 15.556 0 1.835-.33 3.587-.912 5.222A15.548 15.548 0 0 0 92 17.555C92 8.965 85.08 2 76.544 2zM231.034 23A27.428 27.428 0 0 0 215 28.15c16.66 1.193 29.903 12.906 33.243 28.85 1.604-4.282 5.5-6.473 9.757-7.352C257.865 34.588 246.154 23 231.034 23M188 44.866C189.66 52.928 196.938 59 205.67 59c.11 0 .22-.015.33-.016a27.142 27.142 0 0 1-1.752-9.62c0-2.878.447-5.654 1.28-8.264a16.38 16.38 0 0 0-5.89-1.1c-4.578 0-8.7 1.873-11.638 4.866" fill-opacity=".749" fill="#FFE100"/><path d="M262.095 50c-4.538 0-8.557 2.124-11.095 5.394.204-.01.405-.03.61-.03 7.68 0 13.905 6.05 13.905 13.515 0 3.05-1.053 5.858-2.81 8.12C270.1 76.688 276 70.78 276 63.515 276 56.05 269.774 50 262.095 50" fill-opacity=".749" fill="#FFE100"/><path d="M262.22 79H85v-3.93h177.22c6.495 0 11.78-5.19 11.78-11.57s-5.285-11.57-11.78-11.57c-3.918 0-7.57 1.908-9.768 5.102l-3.315-2.2C252.08 50.555 256.97 48 262.22 48c8.7 0 15.78 6.953 15.78 15.5 0 8.546-7.08 15.5-15.78 15.5" fill="#31343F"/><path d="M201.083 52c-.585-7.935 1.926-15.625 7.07-21.653 5.14-6.028 12.3-9.674 20.16-10.263 7.865-.59 15.47 1.945 21.44 7.137 5.97 5.195 9.58 12.425 10.164 20.36.085 1.148.105 2.31.06 3.453l-3.993-.164c.04-.99.023-1.996-.05-2.99-.506-6.86-3.627-13.112-8.788-17.602-5.16-4.49-11.746-6.682-18.538-6.172-6.794.51-12.984 3.662-17.43 8.874-4.447 5.212-6.616 11.86-6.11 18.72l-3.985.3z" fill="#31343F"/><path d="M186.25 68A17.61 17.61 0 0 1 182 56.514C182 46.857 189.778 39 199.34 39c1.937 0 3.843.322 5.66.955l-1.3 3.804a13.218 13.218 0 0 0-4.36-.737c-7.365 0-13.357 6.052-13.357 13.49 0 3.254 1.162 6.395 3.273 8.848L186.25 68z" fill="#31343F"/><path fill="#31343F" d="M107 69h86v-4h-86zM76.802 34H0v-3.972h76.802c7.267 0 13.18-5.844 13.18-13.028S84.07 3.972 76.802 3.972c-7.267 0-13.18 5.844-13.18 13.028 0 .884.09 1.768.268 2.628l-3.936.795a16.895 16.895 0 0 1-.35-3.423c0-9.374 7.715-17 17.198-17S94 7.626 94 17c0 9.374-7.715 17-17.198 17"/><path d="M48.325 32A11.117 11.117 0 0 1 48 29.33C48 23.082 53.216 18 59.627 18c1.868 0 3.727.443 5.373 1.28l-1.867 3.485a7.67 7.67 0 0 0-3.506-.833c-4.187 0-7.592 3.32-7.592 7.398 0 .59.072 1.178.212 1.745L48.325 32z" fill="#31343F"/><path fill="#31343F" d="M19 34h37v-4H19z"/></g></g></svg>