<?xml version="1.0" encoding="UTF-8"?>
<svg width="724px" height="710px" viewBox="0 0 724 710" version="1.1" xmlns="http://www.w3.org/2000/svg" xmlns:xlink="http://www.w3.org/1999/xlink">
    <!-- Generator: Sketch 41.2 (35397) - http://www.bohemiancoding.com/sketch -->
    <title>buildings</title>
    <desc>Created with Sketch.</desc>
    <defs></defs>
    <g id="Page-1" stroke="none" stroke-width="1" fill="none" fill-rule="evenodd">
        <g id="buildings">
            <g id="Page-1" transform="translate(48.000000, 262.000000)">
                <polygon id="Fill-1" fill="#DAE1E2" points="488 175 519 175 519 165 488 165"></polygon>
                <g id="Group-267">
                    <path d="M497.33561,144 L488,144 L488,292 L503,292 L503,149.798556 C503,146.595668 500.46439,144 497.33561,144 Z" id="Fill-2" fill="#DAE1E2"></path>
                    <polygon id="Fill-4" fill="#DAE1E2" points="488 197 519 197 519 187 488 187"></polygon>
                    <polygon id="Fill-6" fill="#DAE1E2" points="488 220 519 220 519 210 488 210"></polygon>
                    <polygon id="Fill-7" fill="#FFC26B" points="475 387 601 387 601 311 475 311"></polygon>
                    <polygon id="Fill-8" fill="#FF8F73" points="486 321 601 321 601 311 486 311"></polygon>
                    <path d="M601,353.147405 C600.225928,353.056539 599.443958,353 598.651127,353 C587.264177,353 578,362.472265 578,374.117235 C578,378.349566 579.21936,382.432474 581.52874,385.924754 L582.239622,387 L601,386.985865 L601,353.147405 Z" id="Fill-9" fill="#FF8F73"></path>
                    <polygon id="Fill-10" fill="#FFFFFF" points="589 387 601 387 601 311 589 311"></polygon>
                    <path d="M589,355.428427 L589,387 L601,386.989903 L601,353.147422 C600.221616,353.056545 599.436292,353 598.641051,353 C595.161626,353 591.882499,353.881504 589,355.428427" id="Fill-11" fill="#DAE1E2"></path>
                    <polygon id="Fill-12" fill="#FF8F73" points="475 387 503 387 503 311 475 311"></polygon>
                    <polygon id="Fill-13" fill="#DAE1E2" points="589 321 601 321 601 311 589 311"></polygon>
                    <path d="M478,385 L599,385 L599,314 L478,314 L478,385 Z M473,390 L604,390 L604,309 L473,309 L473,390 Z" id="Fill-14" fill="#31343F"></path>
                    <polygon id="Fill-15" fill="#FAFAF8" points="503 294 549 294 549 277 503 277"></polygon>
                    <polygon id="Fill-16" fill="#C8D0D1" points="503 294 539 294 539 277 503 277"></polygon>
                    <path d="M505,292 L546,292 L546,280 L505,280 L505,292 Z M500,297 L551,297 L551,275 L500,275 L500,297 Z" id="Fill-17" fill="#31343F"></path>
                    <path d="M559.062855,255 L491.937145,255 C485.344245,255 480,260.373389 480,267 C480,273.628619 485.344245,279 491.937145,279 L559.062855,279 C565.655755,279 571,273.628619 571,267 C571,260.373389 565.655755,255 559.062855,255" id="Fill-18" fill="#FAFAF8"></path>
                    <path d="M549.991127,255 L492.008873,255 C485.376357,255 480,260.373389 480,267 C480,273.628619 485.376357,279 492.008873,279 L549.991127,279 C556.623643,279 562,273.628619 562,267 C562,260.373389 556.623643,255 549.991127,255" id="Fill-19" fill="#FF666E"></path>
                    <path d="M485.610509,271.187561 C485.610509,265.623818 490.043121,261.114215 495.509643,261.114215 L560,261.114215 C557.93718,257.464408 554.075518,255 549.641906,255 L491.948954,255 C485.349532,255 480,260.443677 480,267.15924 C480,272.934625 483.959654,277.758638 489.264189,279 C487.035384,277.152202 485.610509,274.340823 485.610509,271.187561" id="Fill-20" fill="#EC4A69"></path>
                    <path d="M491.439244,258 C486.234175,258 482,262.261429 482,267.5 C482,272.738571 486.234175,277 491.439244,277 L558.560756,277 C563.765825,277 568,272.738571 568,267.5 C568,262.261429 563.765825,258 558.560756,258 L491.439244,258 Z M558.564736,282 L491.435264,282 C483.47539,282 477,275.495571 477,267.5 C477,259.504429 483.47539,253 491.435264,253 L558.564736,253 C566.52461,253 573,259.504429 573,267.5 C573,275.495571 566.52461,282 558.564736,282 L558.564736,282 Z" id="Fill-21" fill="#31343F"></path>
                    <polygon id="Fill-22" fill="#DAE1E2" points="550 387 587 387 587 376 550 376"></polygon>
                    <path d="M552,385 L584,385 L584,379 L552,379 L552,385 Z M547,390 L589,390 L589,374 L547,374 L547,390 Z" id="Fill-23" fill="#31343F"></path>
                    <polygon id="Fill-24" fill-opacity="0.5" fill="#31343F" points="558 376 579 376 579 335 558 335"></polygon>
                    <path d="M560,374 L576,374 L576,338 L560,338 L560,374 Z M555,379 L581,379 L581,333 L555,333 L555,379 Z" id="Fill-25" fill="#31343F"></path>
                    <polygon id="Fill-26" fill="#BCDCF6" points="489 366 540 366 540 330 489 330"></polygon>
                    <polygon id="Fill-27" fill="#FF8F73" points="489 372 542 372 542 366 489 366"></polygon>
                    <polygon id="Fill-28" fill-opacity="0.246263587" fill="#3993DD" points="489 366 502 366 502 330 489 330"></polygon>
                    <path d="M618.902974,368.401872 C616.067845,361.725035 610.411724,359 602.675701,359 C592.361003,359 584,367.328953 584,377.600624 C584,381.452878 585.175245,385.031623 587.189519,388 L633.304779,387.964806 C634.381078,386.191019 635,384.112552 635,381.889286 C635,375.396463 629.715434,370.133426 623.197062,370.133426 C621.883493,370.133426 620.620407,370.347607 619.440113,370.740777 L618.902974,368.401872 Z" id="Fill-29" fill="#7DC98E"></path>
                    <path d="M602.307769,359 C594.363596,359 587.611099,364.006379 585,371.017698 C586.500333,379.527247 593.935072,386 602.904107,386 C607.829634,386 612.290677,384.040852 615.567037,380.873166 C616.361154,381.028464 617.182242,381.114077 618.02131,381.114077 C623.560155,381.114077 628.257936,377.577059 630,372.651316 C627.987236,371.008738 625.415094,370.021201 622.610211,370.021201 C621.310655,370.021201 620.061043,370.233242 618.893341,370.623479 L618.361931,368.307942 C615.558047,361.69781 609.961265,359 602.307769,359" id="Fill-30" fill="#A5E19C"></path>
                    <path d="M491,364 L537,364 L537,333 L491,333 L491,364 Z M486,369 L542,369 L542,328 L486,328 L486,369 Z" id="Fill-31" fill="#31343F"></path>
                    <path d="M602.168172,361 C593.252785,361 586,368.225471 586,377.106045 C586,379.896766 586.712544,382.599899 588.071935,385 L631.284424,384.966777 C631.7544,383.84324 632,382.631109 632,381.399849 C632,376.296615 627.832883,372.14577 622.710654,372.14577 C619.539077,372.14577 616.619164,373.73342 614.896931,376.393263 L610.650979,373.663954 C612.013403,371.558832 613.863995,369.889635 616.003647,368.762071 C613.102938,363.983011 607.892778,361 602.168172,361 L602.168172,361 Z M585.370003,390 L584.619477,388.892822 C582.250878,385.404509 581,381.324429 581,377.096658 C581,365.464259 590.50163,356 602.181201,356 C610.09704,356 617.262353,360.353358 620.910075,367.232529 C621.495163,367.159186 622.086304,367.123016 622.684506,367.123016 C630.577144,367.123016 637,373.519931 637,381.381697 C637,383.98487 636.288815,386.53379 634.942104,388.752165 L634.2057,389.962826 L585.370003,390 Z" id="Fill-32" fill="#31343F"></path>
                    <path d="M602.488545,294 L468,294 L468,311 L609,311 L609,300.339774 C609,296.838516 606.085168,294 602.488545,294" id="Fill-33" fill="#FAFAF8"></path>
                    <path d="M589.792074,294 L468,294 L468,311 L596,311 L596,300.037556 C596,296.702469 593.220824,294 589.792074,294" id="Fill-34" fill-opacity="0.499858469" fill="#3993DD"></path>
                    <polygon id="Fill-35" fill-opacity="0.150532156" fill="#064971" points="468 311 499 311 499 294 468 294"></polygon>
                    <path d="M470,308 L606,308 L606,299.864895 C606,297.734593 604.198312,296 601.984382,296 L470,296 L470,308 Z M611,313 L465,313 L465,291 L601.992424,291 C606.95892,291 611,294.9591 611,299.82582 L611,313 Z" id="Fill-36" fill="#31343F"></path>
                    <polygon id="Fill-37" fill="#31343F" points="460 390 676 390 676 385 460 385"></polygon>
                    <path d="M552,153 L546.97861,153 L546.97861,103.098375 C546.97861,101.953994 546.047645,101.02362 544.904776,101.02362 L532.91671,101.02362 L480.02139,139.931555 L480.02139,150.691144 L475,150.691144 L475,137.389604 L531.26869,96 L544.904776,96 C548.816439,96 552,99.1839702 552,103.098375 L552,153 Z" id="Fill-38" fill="#31343F"></path>
                    <path d="M60.2071017,341 L55.3279458,336.127581 C52.5370089,333.341492 51,329.634671 51,325.692939 C51,321.751206 52.5370089,318.044385 55.3279458,315.257301 L105.885769,264.769282 C110.919423,259.743573 119.108829,259.743573 124.142484,264.769282 L144,285.573865 L140.392714,289.007951 L120.576065,268.245173 C117.527963,265.205261 112.500289,265.205261 109.409327,268.287975 L58.8525005,318.775994 C57.002508,320.623433 55.983816,323.080048 55.983816,325.692939 C55.983816,328.30583 57.002508,330.761449 58.8525005,332.608888 L60.2071017,333.962614 L92.6656985,301.548832 L96.1892564,305.067525 L60.2071017,341 Z" id="Fill-39" fill="#31343F"></path>
                    <path d="M105.595745,296 L102,292.384424 L110.181946,284.154004 C111.562891,282.76505 113.398389,282 115.350829,282 C117.304287,282 119.139784,282.766072 120.519712,284.154004 L128,291.677674 L124.405272,295.294272 L116.924984,287.769579 C116.082994,286.924752 114.618664,286.924752 113.777691,287.769579 L105.595745,296 Z" id="Fill-40" fill="#31343F"></path>
                    <path d="M384,80 L418,80" id="Fill-41" fill="#FFFFFF"></path>
                    <polygon id="Fill-42" fill="#3C628F" points="384 83 418 83 418 78 384 78"></polygon>
                    <path d="M378.903073,16 L334.922995,16 L257,101.390049 L257,399 L384,399 L384,21.1058668 C384,18.2864926 381.718509,16 378.903073,16" id="Fill-43" fill-opacity="0.502519248" fill="#3993DD"></path>
                    <path d="M378.992787,16 L370,16 L370,381.511836 L384,399 L384,21.1058802 C384,18.2864985 381.758667,16 378.992787,16" id="Fill-44" fill="#FFFFFF"></path>
                    <path d="M280,399 L257,399 L257,268 L274.51406,268.14479 C277.551393,268.169754 280,270.590243 280,273.568923 L280,399 Z" id="Fill-45" fill="#3993DD"></path>
                    <path d="M259,396 L381,396 L381,20.6064139 C381,19.1687372 379.832402,18 378.398353,18 L335.520568,18 L259,101.860143 L259,396 Z M386,401 L254,401 L254,99.9189585 L333.324164,13 L378.407437,13 C382.593478,13 386,16.4112527 386,20.6053339 L386,401 Z" id="Fill-46" fill="#31343F"></path>
                    <polygon id="Fill-47" fill="#31343F" points="35 415 325 415 325 410 35 410"></polygon>
                    <polygon id="Fill-48" fill="#31343F" points="545 448 586 448 586 443 545 443"></polygon>
                    <polygon id="Fill-49" fill="#31343F" points="611 448 624 448 624 443 611 443"></polygon>
                    <polygon id="Fill-50" fill="#31343F" points="247 448 256 448 256 443 247 443"></polygon>
                    <polygon id="Fill-51" fill="#FF666E" points="142 413 267 413 267 255 142 255"></polygon>
                    <polygon id="Fill-52" fill="#FFFFFF" points="142 413 152 413 152 255 142 255"></polygon>
                    <path d="M196.719482,396.363689 C196.236031,396.363689 195.762589,396.404664 195.295154,396.463628 C193.150154,387.602998 185.14569,381 175.62181,381 C169.067698,381 163.08512,384.074137 159.280572,389.294973 C158.104476,388.995154 156.885339,388.836251 155.646184,388.836251 C149.155131,388.836251 143.493852,393.075681 141.575063,399.126015 C137.27105,399.926529 134,403.699243 134,408.226499 C134,409.769564 134.389363,411.299637 135.125049,412.649818 L135.764645,413.823107 L187.233637,413.822108 L187.326724,414 L206.11224,414 L206.741827,412.783737 C207.576605,411.168716 208,409.433767 208,407.626863 C208,401.415627 202.939281,396.363689 196.719482,396.363689" id="Fill-53" fill="#EC4A69"></path>
                    <polygon id="Fill-54" fill="#EC4A69" points="259 413 268 413 268 255 259 255"></polygon>
                    <polygon id="Fill-55" fill="#EC4A69" points="142 263 267 263 267 255 142 255"></polygon>
                    <polygon id="Fill-56" fill="#EC4A69" points="249 300 261 300 261 295 249 295"></polygon>
                    <polygon id="Fill-57" fill="#EC4A69" points="222 330 235 330 235 325 222 325"></polygon>
                    <polygon id="Fill-58" fill="#EC4A69" points="211 399 224 399 224 394 211 394"></polygon>
                    <polygon id="Fill-59" fill="#EC4A69" points="206 330 219 330 219 325 206 325"></polygon>
                    <polygon id="Fill-60" fill="#EC4A69" points="212 336 225 336 225 331 212 331"></polygon>
                    <polygon id="Fill-61" fill="#EC4A69" points="209 300 222 300 222 295 209 295"></polygon>
                    <polygon id="Fill-62" fill="#EC4A69" points="172 274 185 274 185 269 172 269"></polygon>
                    <polygon id="Fill-63" fill="#EC4A69" points="255 290 261 290 261 285 255 285"></polygon>
                    <polygon id="Fill-64" fill="#EC4A69" points="251 348 262 348 262 343 251 343"></polygon>
                    <polygon id="Fill-65" fill="#EC4A69" points="251 396 262 396 262 391 251 391"></polygon>
                    <polygon id="Fill-66" fill="#EC4A69" points="255 357 261 357 261 352 255 352"></polygon>
                    <polygon id="Fill-67" fill="#C5D0D1" points="142 263 152 263 152 255 142 255"></polygon>
                    <path d="M145,410.030675 L265,410.030675 L265,257.969325 L145,257.969325 L145,410.030675 Z M140,415 L270,415 L270,253 L140,253 L140,415 Z" id="Fill-68" fill="#31343F"></path>
                    <path d="M277,206 L133,206 L133,250.886601 C133,253.157395 134.861387,255 137.156563,255 L272.843437,255 C275.138613,255 277,253.157395 277,250.886601 L277,206 Z" id="Fill-69" fill="#FFFFFF"></path>
                    <path d="M277,213 L152.065521,213 C148.163442,213 145,216.171418 145,220.084337 L145,251.32857 C145,253.356674 146.638193,255 148.660198,255 L273.338803,255 C275.360807,255 277,253.356674 277,251.32857 L277,213 Z" id="Fill-70" fill="#FFB473"></path>
                    <path d="M136,208 L136,250.36619 C136,251.266271 136.741397,252 137.652114,252 L273.347886,252 C274.259604,252 275,251.266271 275,250.36619 L275,208 L136,208 Z M273.339288,257 L137.660712,257 C133.988255,257 131,254.0399 131,250.403263 L131,203 L280,203 L280,250.403263 C280,254.0399 277.011745,257 273.339288,257 L273.339288,257 Z" id="Fill-71" fill="#31343F"></path>
                    <path d="M302,396 L384,396 L384,165 L352.512488,165 C349.103701,165 346.339251,167.725248 346.339251,171.085696 L346.339251,214.022895 L308.380346,214.022895 C304.856498,214.022895 302,216.838886 302,220.312763 L302,396 Z" id="Fill-72" fill="#3993DD"></path>
                    <polygon id="Fill-73" fill="#FF515C" points="159 222 177 222 177 197 159 197"></polygon>
                    <path d="M162,220 L175,220 L175,200 L162,200 L162,220 Z M157,225 L180,225 L180,195 L157,195 L157,225 Z" id="Fill-74" fill="#31343F"></path>
                    <polygon id="Fill-75" fill="#FF515C" points="159 187 177 187 177 177 159 177"></polygon>
                    <path d="M162,185 L175,185 L175,180 L162,180 L162,185 Z M157,190 L180,190 L180,175 L157,175 L157,190 Z" id="Fill-76" fill="#31343F"></path>
                    <polygon id="Fill-77" fill="#C8D0D1" points="164 197 172 197 172 187 164 187"></polygon>
                    <path d="M166,195 L169,195 L169,190 L166,190 L166,195 Z M161,200 L174,200 L174,185 L161,185 L161,200 Z" id="Fill-78" fill="#31343F"></path>
                    <polygon id="Fill-79" fill="#ECE7F2" points="369.338521 157 369.338521 194.3086 325 194.3086 325 446 489 446 489 157"></polygon>
                    <polygon id="Fill-80" fill="#FFFFFF" points="369 194 377 194 377 157 369 157"></polygon>
                    <polygon id="Fill-81" fill="#FFFFFF" points="325 445 333 445 333 194 325 194"></polygon>
                    <polygon id="Fill-82" fill="#C8C8DD" points="369 165 489 165 489 156 369 156"></polygon>
                    <polygon id="Fill-83" fill="#C8C8DD" points="345 258 468 258 468 249 345 249"></polygon>
                    <polygon id="Fill-84" fill="#C8C8DD" points="345 326 468 326 468 317 345 317"></polygon>
                    <polygon id="Fill-85" fill="#C8C8DD" points="345 393 468 393 468 384 345 384"></polygon>
                    <path d="M372.956779,203 L325,203 L325,176 L374.291366,176 C378.549336,176 382,179.5169 382,183.854343 L382,193.785843 C382,198.874016 377.950559,203 372.956779,203" id="Fill-86" fill="#C8C8DD"></path>
                    <polygon id="Fill-87" fill="#FFFFFF" points="475 444 488 444 488 165 475 165"></polygon>
                    <polygon id="Fill-88" fill="#DAE1E2" points="325 203 333 203 333 194 325 194"></polygon>
                    <polygon id="Fill-89" fill="#DAE1E2" points="475 166 488 166 488 157 475 157"></polygon>
                    <polygon id="Fill-90" fill="#DAE1E2" points="369 166 377 166 377 157 369 157"></polygon>
                    <path d="M327,443 L486,443 L486,159 L371.339261,159 L371.339261,196.30928 L327,196.30928 L327,443 Z M491,448 L322,448 L322,191.307942 L366.337825,191.307942 L366.337825,154 L491,154 L491,448 Z" id="Fill-91" fill="#3C628F"></path>
                    <path d="M327,443 L486,443 L486,159 L371.339261,159 L371.339261,196.30928 L327,196.30928 L327,443 Z M491,448 L322,448 L322,191.307942 L366.337825,191.307942 L366.337825,154 L491,154 L491,448 Z" id="Fill-92" fill="#31343F"></path>
                    <path d="M312.424569,175 L371.575431,175 C374.019641,175 376,176.928711 376,179.309174 L376,188.690826 C376,191.070316 374.019641,193 371.575431,193 L312.424569,193 C309.981359,193 308,191.070316 308,188.690826 L308,179.309174 C308,176.928711 309.981359,175 312.424569,175" id="Fill-93" fill="#FFFFFF"></path>
                    <path d="M319.101997,181 L362.898003,181 C364.611582,181 366,182.348511 366,184.012836 L366,189.987164 C366,191.650521 364.611582,193 362.898003,193 L319.101997,193 C317.388418,193 316,191.650521 316,189.987164 L316,184.012836 C316,182.348511 317.388418,181 319.101997,181" id="Fill-94" fill="#FFD196"></path>
                    <path d="M312.925328,178 C311.863698,178 311,178.83274 311,179.856317 L311,189.143683 C311,190.16726 311.863698,191 312.925328,191 L372.074672,191 C373.136302,191 374,190.16726 374,189.143683 L374,179.856317 C374,178.83274 373.136302,178 372.074672,178 L312.925328,178 Z M372.076087,196 L312.923913,196 C309.106064,196 306,192.957553 306,189.217899 L306,179.782101 C306,176.042447 309.106064,173 312.923913,173 L372.076087,173 C375.894936,173 379,176.042447 379,179.782101 L379,189.217899 C379,192.957553 375.894936,196 372.076087,196 L372.076087,196 Z" id="Fill-95" fill="#31343F"></path>
                    <path d="M60.00558,412 L55,412 L55,397.179997 C55,393.772546 57.8241482,391 61.2950174,391 L116,391 L116,395.91412 L61.2950174,395.91412 C60.584225,395.91412 60.00558,396.482192 60.00558,397.179997 L60.00558,412 Z" id="Fill-96" fill="#31343F"></path>
                    <polygon id="Fill-97" fill="#31343F" points="64 394 69 394 69 331 64 331"></polygon>
                    <polygon id="Fill-98" fill="#31343F" points="74.0858951 412 69 412 69 401 96 401 96 405.837291 74.0858951 405.837291"></polygon>
                    <polygon id="Fill-99" fill="#31343F" points="77 404 82 404 82 394 77 394"></polygon>
                    <polygon id="Fill-100" fill="#31343F" points="112 396 84 396 84 351 112 351 112 362.145672 107.007133 362.145672 107.007133 355.991791 88.9928673 355.991791 88.9928673 391.008209 107.007133 391.008209 107.007133 375.948973 112 375.948973"></polygon>
                    <path d="M109,322 L109,314.703218 C109,312.657363 110.60404,311 112.581818,311 L119,311" id="Fill-101" fill="#FFFFFF"></path>
                    <path d="M111.83871,322 L107,322 L107,315.030691 C107,311.705133 109.624516,309 112.850968,309 L119,309 L119,313.98734 L112.850968,313.98734 C112.292581,313.98734 111.83871,314.455152 111.83871,315.030691 L111.83871,322 Z" id="Fill-102" fill="#31343F"></path>
                    <path d="M425.782687,44 L384,44 L384,138 L431,138 L431,49.1762312 C431,46.3171505 428.664459,44 425.782687,44" id="Fill-103" fill="#FFD196"></path>
                    <path d="M425.831968,44 L414,44 L414,138 L431,138 L431,49.1762312 C431,46.3171505 428.68652,44 425.831968,44" id="Fill-104" fill="#FFFFFF"></path>
                    <path d="M293,96 L293,326" id="Fill-105" fill="#31343F"></path>
                    <polygon id="Fill-106" fill="#064971" points="290 326 295 326 295 96 290 96"></polygon>
                    <path d="M293,349 L293,383" id="Fill-107" fill="#FFFFFF"></path>
                    <polygon id="Fill-108" fill="#31343F" points="290 383 295 383 295 349 290 349"></polygon>
                    <polygon id="Fill-109" fill="#F0A48D" points="384 138 394 138 394 44 384 44"></polygon>
                    <polygon id="Fill-110" fill="#F0A48D" points="394 82 408 82 408 72 394 72"></polygon>
                    <polygon id="Fill-111" fill="#F0A48D" points="394 100 408 100 408 90 394 90"></polygon>
                    <polygon id="Fill-112" fill="#F0A48D" points="394 118 408 118 408 108 394 108"></polygon>
                    <path d="M387,135 L429,135 L429,48.6851688 C429,47.2051388 427.784472,46 426.290679,46 L387,46 L387,135 Z M434,140 L382,140 L382,41 L426.274624,41 C430.53427,41 434,44.4395274 434,48.6681931 L434,140 Z" id="Fill-113" fill="#31343F"></path>
                    <polygon id="Fill-114" fill="#31343F" points="226.045411 189 226 171.350094 255.256078 139 259 142.380327 231.050763 173.285311 231.091129 188.98689"></polygon>
                    <polygon id="Fill-115" fill="#31343F" points="226.021904 204 226 198.016851 230.978096 198 231 203.983149"></polygon>
                    <path d="M327,426.534769 C328.110557,426.82839 329.272002,427 330.475354,427 C331.4093,427 332.320295,426.905763 333.200359,426.726218 L333.200359,413.885252 C333.437837,413.893187 333.674317,413.904099 333.91379,413.904099 C335.348633,413.904099 336.749551,413.767208 338.111555,413.518225 C339.156256,414.561771 340.429455,415.410891 341.901217,415.974327 C347.505887,418.123911 353.802036,415.34939 355.964279,409.776539 C357.240471,406.490164 356.781481,402.969686 355.048294,400.189213 C356.300539,397.363109 357,394.238424 357,390.952049 C357,378.276741 346.664738,368 333.91379,368 C331.505089,368 329.183197,368.368018 327,369.048505 L327,426.534769 Z" id="Fill-116" fill="#C8C8DD"></path>
                    <polygon id="Fill-117" fill="#ADEFFF" points="161 310 176 310 176 280 161 280"></polygon>
                    <path d="M164,307 L174,307 L174,282 L164,282 L164,307 Z M159,312 L179,312 L179,277 L159,277 L159,312 Z" id="Fill-118" fill="#31343F"></path>
                    <polygon id="Fill-119" fill="#FFC97C" points="157 318 180 318 180 310 157 310"></polygon>
                    <path d="M160,315 L178,315 L178,312 L160,312 L160,315 Z M155,320 L183,320 L183,307 L155,307 L155,320 Z" id="Fill-120" fill="#31343F"></path>
                    <polygon id="Fill-121" fill="#ADEFFF" points="196 309 211 309 211 279 196 279"></polygon>
                    <path d="M199,307 L209,307 L209,282 L199,282 L199,307 Z M194,312 L214,312 L214,277 L194,277 L194,312 Z" id="Fill-122" fill="#31343F"></path>
                    <polygon id="Fill-123" fill="#FFC97C" points="192 318 215 318 215 310 192 310"></polygon>
                    <path d="M195,315 L213,315 L213,312 L195,312 L195,315 Z M190,320 L218,320 L218,307 L190,307 L190,320 Z" id="Fill-124" fill="#31343F"></path>
                    <polygon id="Fill-125" fill="#ADEFFF" points="231 309 246 309 246 279 231 279"></polygon>
                    <path d="M233,307 L243,307 L243,282 L233,282 L233,307 Z M228,312 L248,312 L248,277 L228,277 L228,312 Z" id="Fill-126" fill="#31343F"></path>
                    <polygon id="Fill-127" fill="#FFC97C" points="227 318 250 318 250 310 227 310"></polygon>
                    <path d="M229,315 L247,315 L247,312 L229,312 L229,315 Z M224,320 L252,320 L252,307 L224,307 L224,320 Z" id="Fill-128" fill="#31343F"></path>
                    <polygon id="Fill-129" fill="#ADEFFF" points="161 373 176 373 176 343 161 343"></polygon>
                    <path d="M164,371 L174,371 L174,346 L164,346 L164,371 Z M159,376 L179,376 L179,341 L159,341 L159,376 Z" id="Fill-130" fill="#31343F"></path>
                    <polygon id="Fill-131" fill="#FFC97C" points="157 382 180 382 180 374 157 374"></polygon>
                    <path d="M160,379 L178,379 L178,376 L160,376 L160,379 Z M155,384 L183,384 L183,371 L155,371 L155,384 Z" id="Fill-132" fill="#31343F"></path>
                    <polygon id="Fill-133" fill="#ADEFFF" points="196 373 211 373 211 343 196 343"></polygon>
                    <path d="M199,371 L209,371 L209,346 L199,346 L199,371 Z M194,376 L214,376 L214,341 L194,341 L194,376 Z" id="Fill-134" fill="#31343F"></path>
                    <polygon id="Fill-135" fill="#FFC97C" points="192 382 215 382 215 374 192 374"></polygon>
                    <path d="M195,379 L213,379 L213,376 L195,376 L195,379 Z M190,384 L218,384 L218,371 L190,371 L190,384 Z" id="Fill-136" fill="#31343F"></path>
                    <polygon id="Fill-137" fill="#ADEFFF" points="231 373 246 373 246 343 231 343"></polygon>
                    <path d="M233,371 L243,371 L243,346 L233,346 L233,371 Z M228,376 L248,376 L248,341 L228,341 L228,376 Z" id="Fill-138" fill="#31343F"></path>
                    <polygon id="Fill-139" fill="#FFC97C" points="227 382 250 382 250 374 227 374"></polygon>
                    <path d="M229,379 L247,379 L247,376 L229,376 L229,379 Z M224,384 L252,384 L252,371 L224,371 L224,384 Z" id="Fill-140" fill="#31343F"></path>
                    <polygon id="Fill-141" fill="#FFFFFF" points="353 249 376 249 376 214 353 214"></polygon>
                    <path d="M356,246 L374,246 L374,216 L356,216 L356,246 Z M351,251 L379,251 L379,211 L351,211 L351,251 Z" id="Fill-142" fill="#31343F"></path>
                    <path d="M353,231 L376,231" id="Fill-143" fill="#FFFFFF"></path>
                    <polygon id="Fill-144" fill="#31343F" points="353 234 376 234 376 229 353 229"></polygon>
                    <polygon id="Fill-145" fill="#FFFFFF" points="395 249 418 249 418 214 395 214"></polygon>
                    <path d="M398,246 L416,246 L416,216 L398,216 L398,246 Z M393,251 L421,251 L421,211 L393,211 L393,251 Z" id="Fill-146" fill="#31343F"></path>
                    <path d="M395,231 L418,231" id="Fill-147" fill="#FFFFFF"></path>
                    <polygon id="Fill-148" fill="#31343F" points="395 234 418 234 418 229 395 229"></polygon>
                    <polygon id="Fill-149" fill="#FFFFFF" points="437 249 460 249 460 214 437 214"></polygon>
                    <path d="M439,246 L457,246 L457,216 L439,216 L439,246 Z M434,251 L462,251 L462,211 L434,211 L434,251 Z" id="Fill-150" fill="#31343F"></path>
                    <path d="M437,231 L460,231" id="Fill-151" fill="#FFFFFF"></path>
                    <polygon id="Fill-152" fill="#31343F" points="437 234 460 234 460 229 437 229"></polygon>
                    <path d="M340,249 L473,249" id="Fill-153" fill="#FFFFFF"></path>
                    <polygon id="Fill-154" fill="#31343F" points="340 252 473 252 473 247 340 247"></polygon>
                    <polygon id="Fill-155" fill="#FFFFFF" points="353 316 376 316 376 281 353 281"></polygon>
                    <path d="M356,314 L374,314 L374,284 L356,284 L356,314 Z M351,319 L379,319 L379,279 L351,279 L351,319 Z" id="Fill-156" fill="#31343F"></path>
                    <path d="M353,299 L376,299" id="Fill-157" fill="#FFFFFF"></path>
                    <polygon id="Fill-158" fill="#31343F" points="353 301 376 301 376 296 353 296"></polygon>
                    <polygon id="Fill-159" fill="#FFFFFF" points="395 316 418 316 418 281 395 281"></polygon>
                    <path d="M398,314 L416,314 L416,284 L398,284 L398,314 Z M393,319 L421,319 L421,279 L393,279 L393,319 Z" id="Fill-160" fill="#31343F"></path>
                    <path d="M395,299 L418,299" id="Fill-161" fill="#FFFFFF"></path>
                    <polygon id="Fill-162" fill="#31343F" points="395 301 418 301 418 296 395 296"></polygon>
                    <polygon id="Fill-163" fill="#FFFFFF" points="437 316 460 316 460 281 437 281"></polygon>
                    <path d="M439,314 L457,314 L457,284 L439,284 L439,314 Z M434,319 L462,319 L462,279 L434,279 L434,319 Z" id="Fill-164" fill="#31343F"></path>
                    <path d="M437,299 L460,299" id="Fill-165" fill="#FFFFFF"></path>
                    <polygon id="Fill-166" fill="#31343F" points="437 301 460 301 460 296 437 296"></polygon>
                    <path d="M340,317 L473,317" id="Fill-167" fill="#FFFFFF"></path>
                    <polygon id="Fill-168" fill="#31343F" points="340 319 473 319 473 314 340 314"></polygon>
                    <polygon id="Fill-169" fill="#FFFFFF" points="353 384 376 384 376 349 353 349"></polygon>
                    <path d="M356,381 L374,381 L374,351 L356,351 L356,381 Z M351,386 L379,386 L379,346 L351,346 L351,386 Z" id="Fill-170" fill="#31343F"></path>
                    <path d="M353,366 L376,366" id="Fill-171" fill="#FFFFFF"></path>
                    <polygon id="Fill-172" fill="#31343F" points="353 369 376 369 376 364 353 364"></polygon>
                    <polygon id="Fill-173" fill="#FFFFFF" points="395 384 418 384 418 349 395 349"></polygon>
                    <path d="M398,381 L416,381 L416,351 L398,351 L398,381 Z M393,386 L421,386 L421,346 L393,346 L393,386 Z" id="Fill-174" fill="#31343F"></path>
                    <path d="M395,366 L418,366" id="Fill-175" fill="#FFFFFF"></path>
                    <polygon id="Fill-176" fill="#31343F" points="395 369 418 369 418 364 395 364"></polygon>
                    <polygon id="Fill-177" fill="#FFFFFF" points="437 384 460 384 460 349 437 349"></polygon>
                    <path d="M439,381 L457,381 L457,351 L439,351 L439,381 Z M434,386 L462,386 L462,346 L434,346 L434,386 Z" id="Fill-178" fill="#31343F"></path>
                    <path d="M437,366 L460,366" id="Fill-179" fill="#FFFFFF"></path>
                    <polygon id="Fill-180" fill="#31343F" points="437 369 460 369 460 364 437 364"></polygon>
                    <path d="M340,384 L473,384" id="Fill-181" fill="#FFFFFF"></path>
                    <polygon id="Fill-182" fill="#31343F" points="340 387 473 387 473 382 340 382"></polygon>
                    <path d="M384,82 L418,82" id="Fill-183" fill="#FFFFFF"></path>
                    <polygon id="Fill-184" fill="#31343F" points="384 85 418 85 418 80 384 80"></polygon>
                    <path d="M384,100 L418,100" id="Fill-185" fill="#FFFFFF"></path>
                    <polygon id="Fill-186" fill="#31343F" points="384 103 418 103 418 98 384 98"></polygon>
                    <path d="M384,118 L418,118" id="Fill-187" fill="#FFFFFF"></path>
                    <polygon id="Fill-188" fill="#31343F" points="384 120 418 120 418 115 384 115"></polygon>
                    <path d="M477.994307,418 C471.491332,418 465.7991,421.531559 462.634299,426.794793 C462.143244,426.732693 461.646176,426.690954 461.139086,426.690954 C454.445702,426.690954 449,432.221931 449,439.021379 C449,440.971931 449.469008,442.92452 450.353909,444.666376 L451.032367,446 L462.671379,446 L471.245805,446 L493.315231,446 L493.992686,444.666376 C495.324548,442.044939 496,439.22804 496,436.293048 C496,426.20637 487.922642,418 477.994307,418" id="Fill-189" fill="#C8C8DD"></path>
                    <path d="M331.861786,152 L327,152 L327,139.876238 C327,137.187624 329.084734,135 331.645923,135 L341,135 L341,140.101735 L331.861786,140.101735 L331.861786,152 Z" id="Fill-190" fill="#064971"></path>
                    <path d="M310.861786,152 L306,152 L306,139.876238 C306,137.187624 308.084734,135 310.645923,135 L320,135 L320,140.101735 L310.861786,140.101735 L310.861786,152 Z" id="Fill-191" fill="#064971"></path>
                    <path d="M351.862124,120 L347,120 L347,107.87551 C347,105.186735 349.084879,103 351.646246,103 L361,103 L361,108.102041 L351.862124,108.102041 L351.862124,120 Z" id="Fill-192" fill="#064971"></path>
                    <path d="M331.861786,120 L327,120 L327,107.87551 C327,105.186735 329.084734,103 331.645923,103 L341,103 L341,108.102041 L331.861786,108.102041 L331.861786,120 Z" id="Fill-193" fill="#064971"></path>
                    <path d="M310.861786,120 L306,120 L306,107.87551 C306,105.186735 308.084734,103 310.645923,103 L320,103 L320,108.102041 L310.861786,108.102041 L310.861786,120 Z" id="Fill-194" fill="#064971"></path>
                    <path d="M351.862124,89 L347,89 L347,76.8755102 C347,74.1867347 349.084879,72 351.646246,72 L361,72 L361,77.1020408 L351.862124,77.1020408 L351.862124,89 Z" id="Fill-195" fill="#064971"></path>
                    <path d="M331.861786,89 L327,89 L327,76.8755102 C327,74.1867347 329.084734,72 331.645923,72 L341,72 L341,77.1020408 L331.861786,77.1020408 L331.861786,89 Z" id="Fill-196" fill="#064971"></path>
                    <path d="M310.861786,89 L306,89 L306,76.8755102 C306,74.1867347 308.084734,72 310.645923,72 L320,72 L320,77.1020408 L310.861786,77.1020408 L310.861786,89 Z" id="Fill-197" fill="#064971"></path>
                    <path d="M351.862124,58 L347,58 L347,45.8755102 C347,43.1867347 349.084879,41 351.646246,41 L361,41 L361,46.1020408 L351.862124,46.1020408 L351.862124,58 Z" id="Fill-198" fill="#064971"></path>
                    <path d="M458.059312,445 C457.386095,443.681339 457,442.1893 457,440.604133 C457,435.299766 461.252927,431 466.49951,431 C471.746093,431 476,435.299766 476,440.604133 C476,442.1893 475.611945,443.681339 474.939708,445 L458.059312,445 Z" id="Fill-199" fill="#A5E19C"></path>
                    <path d="M459.259782,442 L472.739245,442 C472.912433,441.38101 473,440.743292 473,440.09079 C473,436.180703 469.86024,433 466.000486,433 C462.140733,433 459,436.180703 459,440.09079 C459,440.743292 459.087567,441.38101 459.259782,442 L459.259782,442 Z M475.973841,447 L456.025175,447 L455.338308,445.655272 C454.449711,443.918248 454,442.053108 454,440.110501 C454,433.432544 459.383739,428 466.000492,428 C472.616261,428 478,433.432544 478,440.110501 C478,442.052114 477.549305,443.917255 476.661692,445.655272 L475.973841,447 Z" id="Fill-200" fill="#31343F"></path>
                    <path d="M469.729421,445 C468.629968,442.83373 468,440.38336 468,437.778763 C468,429.063967 474.939614,422 483.5,422 C492.060386,422 499,429.063967 499,437.778763 C499,440.38336 498.369035,442.83373 497.271576,445 L469.729421,445 Z" id="Fill-201" fill="#7DC98E"></path>
                    <path d="M470.846711,442 L495.153289,442 C495.716103,440.496264 496,438.921213 496,437.296242 C496,429.965022 490.167656,424 483.000498,424 C475.832344,424 470,429.965022 470,437.296242 C470,438.921213 470.284893,440.496264 470.846711,442 L470.846711,442 Z M498.296585,447 L467.70541,447 L467.008365,445.630765 C465.676103,443.012722 465,440.198352 465,437.267602 C465,427.195171 473.075344,419 483.000499,419 C492.925653,419 501,427.195171 501,437.267602 C501,440.19734 500.324894,443.01171 498.992632,445.629753 L498.296585,447 Z" id="Fill-202" fill="#31343F"></path>
                    <path d="M397.879287,423.884376 L397.615086,423.89751 C396.130339,414.328383 387.924047,407 377.991913,407 C368.928727,407 361.280973,413.097894 358.88609,421.436531 C358.88609,421.436531 355.624267,420.79805 353.885365,420.79805 C342.902455,420.79805 334,429.751932 334,440.79704 C334,442.963025 334.341552,445.047179 334.974428,447 L410.796989,447 C412.194339,444.69561 413,441.98813 413,439.091731 C413,430.692479 406.230236,423.884376 397.879287,423.884376" id="Fill-203" fill="#C8C8DD"></path>
                    <path d="M179.060292,411 C178.387075,409.681339 178,408.1893 178,406.604133 C178,401.299766 182.253907,397 187.50049,397 C192.747073,397 197,401.299766 197,406.604133 C197,408.1893 196.612925,409.681339 195.940688,411 L179.060292,411 Z" id="Fill-204" fill="#7DC98E"></path>
                    <path d="M180.2598,409 L193.7402,409 C193.9134,408.38101 194,407.743292 194,407.09079 C194,403.180703 190.860022,400 187,400 C183.139978,400 180,403.180703 180,407.09079 C180,407.743292 180.0866,408.38101 180.2598,409 L180.2598,409 Z M196.974742,414 L177.025258,414 L176.338363,412.655272 C175.449729,410.917255 175,409.053108 175,407.110501 C175,400.432544 180.382975,395 187,395 C193.617025,395 199,400.432544 199,407.110501 C199,409.053108 198.550271,410.918248 197.662621,412.655272 L196.974742,414 Z" id="Fill-205" fill="#31343F"></path>
                    <polygon id="Fill-206" fill-opacity="0.5" fill="#31343F" points="421 191 433 191 433 176 421 176"></polygon>
                    <path d="M423,188 L430,188 L430,178 L423,178 L423,188 Z M418,193 L435,193 L435,173 L418,173 L418,193 Z" id="Fill-207" fill="#31343F"></path>
                    <path d="M350,379.729173 C350,366.62441 339.254781,356 326,356 C312.745219,356 302,366.62441 302,379.729173 C302,386.622131 304.975522,392.825992 309.722499,397.163134 L309.718482,397.163134 C308.854847,398.964319 308.372819,400.977993 308.372819,403.103868 C308.372819,410.779259 314.664296,417 322.425959,417 C323.396042,417 324.344031,416.902692 325.257877,416.718006 L325.257877,403.441466 C325.504917,403.448416 325.751956,403.459338 326,403.459338 C327.491276,403.459338 328.948408,403.318342 330.363362,403.061171 C331.449935,404.139499 332.773505,405.018247 334.302942,405.602093 C340.129461,407.82329 346.675007,404.953706 348.922465,399.193688 C350.248044,395.794869 349.771036,392.155761 347.970459,389.280219 C349.271936,386.35801 350,383.128984 350,379.729173" id="Fill-208" fill="#A5E19C"></path>
                    <path d="M349,380.222756 C349,372.36558 345.291532,365.391041 339.559004,361 C341.673177,364.433929 342.8991,368.488823 342.8991,372.837594 C342.8991,376.738506 341.913807,380.404919 340.184839,383.596299 C341.903904,385.132107 342.994164,387.376439 342.994164,389.886468 C342.994164,394.514019 339.30253,398.265979 334.748393,398.265979 C331.714283,398.265979 329.070328,396.59531 327.638434,394.114468 C325.51832,394.805883 323.25858,395.183293 320.91269,395.183293 C312.865959,395.183293 305.832248,390.78722 302,384.231355 C302.886269,389.595611 305.51735,394.358023 309.283252,397.892595 L309.279291,397.893601 C308.427681,399.71926 307.952363,401.760294 307.952363,403.915054 C307.952363,411.694735 314.156248,418 321.809852,418 C322.766429,418 323.70122,417.90137 324.603333,417.714175 L324.603333,404.257239 C324.845943,404.264284 325.089543,404.275355 325.334134,404.275355 C326.804648,404.275355 328.241493,404.132442 329.636749,403.871778 C330.708194,404.964757 332.013337,405.855445 333.52148,406.447224 C339.266882,408.698602 345.721299,405.790028 347.937467,399.951744 C349.244591,396.506745 348.774224,392.81819 346.998715,389.903577 C348.282072,386.941663 349,383.668762 349,380.222756" id="Fill-209" fill="#7DC98E"></path>
                    <path d="M325,425 L325,403" id="Fill-210" fill="#FFFFFF"></path>
                    <polygon id="Fill-211" fill="#31343F" points="322 425 327 425 327 403 322 403"></polygon>
                    <path d="M330.761718,400.516773 L331.645871,401.40537 C332.521987,402.286922 333.553834,402.961168 334.711272,403.408989 C339.240549,405.159011 344.344525,402.889718 346.090729,398.356166 C347.836932,393.820601 345.573298,388.707397 341.045025,386.956369 C339.93481,386.529682 338.775363,386.335459 337.600846,386.367661 L337.440091,381.337984 C339.28978,381.273579 341.112342,381.589569 342.853521,382.262809 C344.189799,382.77906 345.400486,383.481484 346.467498,384.329827 C346.82116,382.768997 347,381.1659 347,379.53362 C347,367.660845 337.354689,358 325.5,358 C313.645311,358 304,367.660845 304,379.53362 C304,391.408408 313.645311,401.069253 325.5,401.069253 C326.555961,401.069253 328.760316,400.794523 329.520889,400.688857 L330.761718,400.516773 Z M337.851074,409 C336.200784,409 334.525399,408.701454 332.896189,408.073201 C331.478787,407.524358 330.182848,406.760402 329.028448,405.795405 C327.988484,405.919045 326.501818,406.072842 325.5,406.072842 C310.88831,406.072842 299,394.168192 299,379.535416 C299,364.904649 310.88831,353 325.5,353 C340.112694,353 352,364.904649 352,379.535416 C352,382.824448 351.410754,386.016981 350.24732,389.045665 C351.896606,392.394005 352.198758,396.395728 350.755256,400.144139 C348.642202,405.628541 343.398216,409 337.851074,409 L337.851074,409 Z" id="Fill-212" fill="#31343F"></path>
                    <path d="M321.815103,419 C313.095068,419 306,411.77335 306,402.889359 C306,400.481145 306.510451,398.163277 307.515585,396 L311.968726,398.149223 C311.277942,399.634907 310.92713,401.23001 310.92713,402.889359 C310.92713,409.005761 315.811887,413.980796 321.815103,413.980796 C322.555158,413.980796 323.294227,413.905508 324.011618,413.754932 L325,418.672748 C323.958405,418.890581 322.886261,419 321.815103,419" id="Fill-213" fill="#31343F"></path>
                    <path d="M381.261835,422.463066 L381.005295,422.475069 C379.55753,413.146199 371.559028,406 361.87909,406 C353.045339,406 345.590744,411.944829 343.256024,420.075331 C343.256024,420.075331 340.077107,419.453139 338.382745,419.453139 C327.677639,419.453139 319,428.182825 319,438.952139 C319,441.063789 319.333105,443.096414 319.950593,445 L393.853212,444.999 C395.215463,442.753309 396,440.114497 396,437.288627 C396,429.101108 389.402528,422.463066 381.261835,422.463066" id="Fill-214" fill="#7DC98E"></path>
                    <path d="M322,428.567404 C326.308106,437.123529 335.18383,443 345.441608,443 C356.391419,443 365.770074,436.305855 369.693941,426.799271 C374.971697,426.252159 379.192293,422.197733 380,417.018133 C376.835559,410.503697 370.145572,406 362.370261,406 C353.434185,406 345.89324,411.933378 343.531477,420.048219 C343.531477,420.048219 340.315737,419.427226 338.601748,419.427226 C331.597933,419.427226 325.468211,423.083297 322,428.567404" id="Fill-215" fill="#A5E19C"></path>
                    <path d="M379.029604,439 C385.860512,439 391.453086,433.722455 392,427.012778 C389.503261,424.663639 386.197692,423.177388 382.540893,423 C382.607125,423.623364 382.649272,424.253743 382.649272,424.895146 C382.649272,430.468337 380.046162,435.423176 376,438.631193 C376.97441,438.863702 377.984947,439 379.029604,439" id="Fill-216" fill="#9CE192"></path>
                    <path d="M395.761339,448 L318.633256,448 L318.073254,446.24896 C317.362062,444.019811 317,441.690167 317,439.324994 C317,427.014932 326.814457,417 338.876879,417 C343.945742,417 348.887286,418.81093 352.79238,422.097809 L349.627324,426.014048 C346.61147,423.474279 342.793908,422.075477 338.876879,422.075477 C329.555781,422.075477 321.973374,429.81355 321.973374,439.324994 C321.973374,440.543109 322.096714,441.748027 322.341404,442.924523 L392.88076,442.924523 C393.632735,441.279053 394.026626,439.475228 394.026626,437.637906 C394.026626,430.740332 388.529058,425.129899 381.770242,425.129899 L381.770242,420.054422 C391.270382,420.054422 399,427.941714 399,437.637906 C399,440.873015 398.131649,444.035037 396.487451,446.783916 L395.761339,448 Z" id="Fill-217" fill="#31343F"></path>
                    <path d="M380.305653,438 L376.163598,435.236394 C378.028221,432.458876 379.014377,429.214298 379.014377,425.855439 C379.014377,416.544046 371.413297,408.968726 362.070239,408.968726 C354.56588,408.968726 347.870188,413.981177 345.790186,421.158005 L341,419.777693 C343.693233,410.488163 352.358246,404 362.070239,404 C374.162369,404 384,413.804291 384,425.855439 C384,430.202081 382.722683,434.401648 380.305653,438" id="Fill-218" fill="#31343F"></path>
                    <polygon id="Fill-219" fill="#31343F" points="142 219 147 219 147 206 142 206"></polygon>
                    <polygon id="Fill-220" fill="#31343F" points="142 254 147 254 147 233 142 233"></polygon>
                    <polygon id="Fill-221" fill="#31343F" points="155 254 160 254 160 245 155 245"></polygon>
                    <polygon id="Fill-222" fill="#31343F" points="187 238 192 238 192 206 187 206"></polygon>
                    <polygon id="Fill-223" fill="#31343F" points="201 232 206 232 206 206 201 206"></polygon>
                    <polygon id="Fill-224" fill="#31343F" points="254 233 259 233 259 214 254 214"></polygon>
                    <polygon id="Fill-225" fill="#31343F" points="214 246 219 246 219 206 214 206"></polygon>
                    <polygon id="Fill-226" fill="#31343F" points="228 246 233 246 233 206 228 206"></polygon>
                    <polygon id="Fill-227" fill="#31343F" points="241 246 246 246 246 206 241 206"></polygon>
                    <polygon id="Fill-228" fill="#31343F" points="0 415 20 415 20 410 0 410"></polygon>
                    <polygon id="Fill-229" fill="#31343F" points="546 246 551 246 551 213 546 213"></polygon>
                    <polygon id="Fill-230" fill="#31343F" points="546 177 551 177 551 164 546 164"></polygon>
                    <polygon id="Fill-231" fill="#31343F" points="489 178 529 178 529 173 489 173"></polygon>
                    <polygon id="Fill-232" fill="#31343F" points="489 200 529 200 529 195 489 195"></polygon>
                    <polygon id="Fill-233" fill="#31343F" points="489 222 529 222 529 217 489 217"></polygon>
                    <polygon id="Fill-234" fill="#31343F" points="538 99 543 99 543 79 538 79"></polygon>
                    <polygon id="Fill-235" fill="#31343F" points="368 17 373 17 373 0 368 0"></polygon>
                    <polygon id="Fill-236" fill="#31343F" points="352 17 357 17 357 0 352 0"></polygon>
                    <path d="M358.578716,137 L492.421284,137 C494.39826,137 496,138.628308 496,140.635811 L496,153.364189 C496,155.371692 494.39826,157 492.421284,157 L358.578716,157 C356.602738,157 355,155.371692 355,153.364189 L355,140.635811 C355,138.628308 356.602738,137 358.578716,137" id="Fill-237" fill="#FFFFFF"></path>
                    <path d="M365.648967,144 L480.351033,144 C481.814778,144 483,145.216212 483,146.718229 L483,154.281771 C483,155.78276 481.814778,157 480.351033,157 L365.648967,157 C364.186224,157 363,155.78276 363,154.281771 L363,146.718229 C363,145.216212 364.186224,144 365.648967,144" id="Fill-238" fill="#FFD196"></path>
                    <path d="M359.083713,139 C358.485974,139 358,139.496061 358,140.106207 L358,152.893793 C358,153.50292 358.485974,154 359.083713,154 L492.916287,154 C493.514026,154 494,153.50292 494,152.893793 L494,140.106207 C494,139.496061 493.514026,139 492.916287,139 L359.083713,139 Z M492.92594,159 L359.07406,159 C355.725642,159 353,156.239748 353,152.846558 L353,140.153442 C353,136.760252 355.725642,134 359.07406,134 L492.92594,134 C496.275356,134 499,136.760252 499,140.153442 L499,152.846558 C499,156.239748 496.275356,159 492.92594,159 L492.92594,159 Z" id="Fill-239" fill="#31343F"></path>
                    <path d="M142,373 L142,403" id="Fill-240" fill="#31343F"></path>
                    <polygon id="Fill-241" fill="#31343F" points="140 403 145 403 145 373 140 373"></polygon>
                    <path d="M143,376 L143,376 C134.715706,376 128,369.400282 128,361.259067 L128,339.739936 C128,331.598721 134.715706,325 143,325 C151.284294,325 158,331.598721 158,339.739936 L158,361.259067 C158,369.400282 151.284294,376 143,376" id="Fill-242" fill="#7DC98E"></path>
                    <path d="M139.0005,368 L139.0005,368 C132.925119,368 128,363.034428 128,356.910155 L128,336.089845 C128,329.964564 132.925119,325 139.0005,325 C145.075881,325 150,329.964564 150,336.089845 L150,356.910155 C150,363.034428 145.075881,368 139.0005,368" id="Fill-243" fill="#A5E19C"></path>
                    <path d="M142.5,328 C135.607905,328 130,333.49221 130,340.243342 L130,361.755661 C130,368.50779 135.607905,374 142.5,374 C149.392095,374 155,368.50779 155,361.755661 L155,340.243342 C155,333.49221 149.392095,328 142.5,328 M142.5,379 C132.84989,379 125,371.267574 125,361.761866 L125,340.237137 C125,330.732426 132.84989,323 142.5,323 C152.149097,323 160,330.732426 160,340.237137 L160,361.761866 C160,371.267574 152.149097,379 142.5,379" id="Fill-244" fill="#31343F"></path>
                    <path d="M130,352 C130,352 123,348.765189 123,344.773953 L123,334.225046 C123,330.234811 126.134589,327 130,327 C133.866381,327 137,330.234811 137,334.225046 L137,337.043624" id="Fill-245" fill="#A5E19C"></path>
                    <path d="M129.5,354 C124.262395,354 120,349.637109 120,344.272785 L120,333.725214 C120,328.362891 124.262395,324 129.5,324 C134.738583,324 139,328.362891 139,333.725214 L139,336.543435 L134.114174,336.543435 L134.114174,333.725214 C134.114174,331.121086 132.044538,329.002168 129.5,329.002168 C126.955462,329.002168 124.885826,331.121086 124.885826,333.725214 L124.885826,344.272785 C124.885826,346.878914 126.955462,348.997832 129.5,348.997832 L129.5,354 Z" id="Fill-246" fill="#31343F"></path>
                    <path d="M647.635996,370.261523 C646.401416,371.343687 644.778564,372 643,372 C639.134479,372 636,368.89479 636,365.064128 L636,354.936874 C636,351.106212 639.134479,348 643,348 C646.865521,348 650,351.106212 650,354.936874 L650,357.641283 L647.635996,370.261523 Z" id="Fill-247" fill="#7DC98E"></path>
                    <path d="M643.5,374 C638.262549,374 634,369.76499 634,364.561377 L634,354.438623 C634,349.234008 638.262549,345 643.5,345 C648.737451,345 653,349.234008 653,354.438623 L653,357.142097 L647.959143,357.142097 L647.959143,354.438623 C647.959143,351.995579 645.957922,350.00829 643.5,350.00829 C641.042078,350.00829 639.040857,351.995579 639.040857,354.438623 L639.040857,364.561377 C639.040857,367.004421 641.042078,368.99171 643.5,368.99171 C644.589833,368.99171 645.638332,368.597057 646.452934,367.882875 L649.791998,371.633082 C648.056935,373.159609 645.821819,374 643.5,374" id="Fill-248" fill="#31343F"></path>
                    <path d="M646.000507,359 L646.000507,359 C637.163543,359 630,351.882638 630,343.102642 L630,319.897358 C630,311.117362 637.163543,304 646.000507,304 C654.836457,304 662,311.117362 662,319.897358 L662,343.102642 C662,351.882638 654.836457,359 646.000507,359" id="Fill-249" fill="#7DC98E"></path>
                    <path d="M641.657722,348 L641.342278,348 C635.077477,348 630,342.871135 630,336.54514 L630,315.45585 C630,309.129854 635.077477,304 641.342278,304 L641.657722,304 C647.922523,304 653,309.129854 653,315.45585 L653,336.54514 C653,342.871135 647.922523,348 641.657722,348" id="Fill-250" fill="#A5E19C"></path>
                    <path d="M645.500509,307 C638.05676,307 632,313.005167 632,320.387758 L632,343.612242 C632,350.994833 638.05676,357 645.500509,357 C652.94324,357 659,350.994833 659,343.612242 L659,320.387758 C659,313.005167 652.94324,307 645.500509,307 M645.500506,362 C635.299756,362 627,353.742934 627,343.594653 L627,320.405347 C627,310.256058 635.299756,302 645.500506,302 C655.700244,302 664,310.256058 664,320.405347 L664,343.594653 C664,353.742934 655.700244,362 645.500506,362" id="Fill-251" fill="#31343F"></path>
                    <path d="M647,360 L647,387" id="Fill-252" fill="#FFFFFF"></path>
                    <polygon id="Fill-253" fill="#31343F" points="645 387 650 387 650 360 645 360"></polygon>
                    <path d="M656.000493,330 L656.000493,330 C660.417616,330 664,326.377037 664,321.907653 L664,310.093645 C664,305.624261 660.417616,302.000302 656.000493,302.000302 C651.582384,302.000302 648,301.881663 648,306.351047 L655.517585,313.286917 L656.000493,330 Z" id="Fill-254" fill="#7DC98E"></path>
                    <path d="M660,309.5 C660,313.090302 657.089552,316 653.500483,316 C649.910448,316 647,313.090302 647,309.5 C647,305.909698 649.910448,303 653.500483,303 C657.089552,303 660,305.909698 660,309.5" id="Fill-255" fill="#A5E19C"></path>
                    <path d="M656.500494,332 L656.500494,327.012846 C659.56421,327.012846 662.055333,324.49932 662.055333,321.410277 L662.055333,309.589723 C662.055333,306.50068 659.56421,303.987154 656.500494,303.987154 C653.436779,303.987154 650.944667,306.50068 650.944667,309.589723 L650.944667,312.746592 L646,312.746592 L646,309.589723 C646,303.750763 650.711279,299 656.500494,299 C662.28971,299 667,303.750763 667,309.589723 L667,321.410277 C667,327.249237 662.28971,332 656.500494,332" id="Fill-256" fill="#31343F"></path>
                    <path d="M646,343 C639.93416,343 635,338.06584 635,332 L639.873726,332 C639.873726,335.378467 642.621533,338.126274 646,338.126274 L646,343 Z" id="Fill-257" fill="#31343F"></path>
                    <polygon id="Fill-258" fill="#31343F" points="509.552764 357 506 353.447236 530.447236 329 534 332.552764"></polygon>
                    <polygon id="Fill-259" fill="#31343F" points="521.60163 360 518 356.398108 528.39837 346 532 349.601892"></polygon>
                    <path d="M278.141634,181 L269.858366,181 C267.728185,181 266,179.261962 266,177.117424 L266,138.882576 C266,136.738038 267.728185,135 269.858366,135 L278.141634,135 C280.2728,135 282,136.738038 282,138.882576 L282,177.117424 C282,179.261962 280.2728,181 278.141634,181" id="Fill-260" fill="#3993DD"></path>
                    <path d="M278.649055,125 L269.350945,125 C267.500585,125 266,123.518529 266,121.690537 L266,114.310436 C266,112.482445 267.500585,111 269.350945,111 L278.649055,111 C280.499415,111 282,112.482445 282,114.310436 L282,121.690537 C282,123.518529 280.499415,125 278.649055,125" id="Fill-261" fill="#3993DD"></path>
                    <path d="M165.554033,381 C158.486524,381 152.298805,384.689187 148.894402,390.208194 L148.892389,390.210163 C147.364333,389.625172 145.702396,389.300177 143.96295,389.300177 C137.367548,389.300177 131.874399,393.916092 130.674503,400.026 C130.674503,400.026 133.167911,400.02403 130.593973,400.02403 C126.39937,400.02403 123,403.350798 123,407.453614 C123,408.737837 123.333193,409.947213 123.919048,411 L181.619756,410.999015 C183.715547,407.962773 185,403.964349 185,400.02403 C185,389.516841 176.293707,381 165.554033,381" id="Fill-262" fill="#7DC98E"></path>
                    <path d="M165.04197,381 C158.081295,381 151.987112,384.747939 148.634171,390.354839 L148.632188,390.35684 C147.127231,389.762532 145.490416,389.432362 143.777264,389.432362 C137.282551,389.432362 131.871447,394.120787 130.689689,400.326997 L130.610377,400.326997 C128.372769,400.326997 126.370126,401.323512 125,402.896326 C127.220753,405.188511 130.313946,406.615249 133.741243,406.615249 C137.708857,406.615249 141.22538,404.699258 143.459022,401.742729 C147.022141,406.737312 152.81692,410 159.379048,410 C170.215135,410 179,401.135415 179,390.198758 C179,389.029153 178.88004,387.889564 178.686715,386.774987 C175.212822,383.213145 170.385658,381 165.04197,381" id="Fill-263" fill="#A5E19C"></path>
                    <path d="M121.94079,414 L121.22645,412.712989 C120.424579,411.269049 120,409.631662 120,407.978484 C120,402.512633 124.53354,398.065338 130.105386,398.065338 C133.397384,398.065338 136.492184,399.646467 138.38468,402.294512 L134.264652,405.126135 C133.313877,403.79471 131.758428,403.000197 130.105386,403.000197 C127.30739,403.000197 125.030559,405.233715 125.030559,407.978484 C125.030559,408.345638 125.071809,408.710817 125.152298,409.06514 L179.703678,409.064153 C181.153485,406.530596 181.969441,403.489735 181.969441,400.532767 C181.969441,391.380576 174.378328,383.93486 165.048654,383.93486 C159.066313,383.93486 153.646389,386.939203 150.550583,391.970786 L146.243419,389.42045 C150.258811,382.895578 157.288514,379 165.048654,379 C177.152178,379 187,388.659495 187,400.532767 C187,404.885314 185.611566,409.396763 183.189855,412.912357 L182.442314,413.999013 L121.94079,414 Z" id="Fill-264" fill="#31343F"></path>
                    <path d="M132.965476,401 L128,400.047681 C129.453236,392.486691 136.112638,387 143.832892,387 C149.05726,387 153.979251,389.544904 157,393.807617 L152.87289,396.725168 C150.797705,393.796509 147.418957,392.049412 143.832892,392.049412 C138.532675,392.049412 133.962617,395.813244 132.965476,401" id="Fill-265" fill="#31343F"></path>
                    <polygon id="Fill-266" fill="#31343F" points="274 448 533 448 533 443 274 443"></polygon>
                </g>
            </g>
            <g id="Page-1" transform="translate(0.000000, 20.000000)">
                <path d="M95.9376672,2 C87.6591284,2 80.6322174,7.32121492 78,14.7431477 C80.1803518,13.8688547 82.5526465,13.373858 85.0449056,13.373858 C95.5727757,13.373858 104.107238,21.9628562 104.107238,32.5590059 C104.107238,34.8227105 103.69836,36.9837938 102.982573,39 C110.02048,36.178921 115,29.2731129 115,21.1841418 C115,10.5889983 106.465537,2 95.9376672,2 Z" id="Fill-1" fill-opacity="0.748754529" fill="#FFE100"></path>
                <path d="M288.135712,29 C280.620207,29 273.671891,31.418442 268,35.5121957 C288.922974,37.0215851 305.552518,51.8349197 309.746916,72 C311.761587,66.5849021 316.652217,63.8134983 322,62.7023222 C321.830944,43.6544515 307.123041,29 288.135712,29" id="Fill-3" fill-opacity="0.748754529" fill="#FFE100"></path>
                <path d="M235,56.1461924 C237.027854,66.3297394 245.924409,74 256.596848,74 C256.731904,74 256.863936,73.9816623 257,73.9796248 C255.615173,70.1939044 254.858255,66.1005179 254.858255,61.8278292 C254.858255,58.1928856 255.405534,54.6863061 256.421477,51.3895916 C254.189023,50.5032685 251.767088,50 249.2232,50 C243.629467,50 238.591076,52.3655658 235,56.1461924" id="Fill-5" fill-opacity="0.748754529" fill="#FFE100"></path>
                <path d="M326.758309,63 C321.130228,63 316.146959,65.6744571 313,69.7918956 C313.253319,69.7810238 313.501631,69.7543385 313.756952,69.7543385 C323.278932,69.7543385 330.998643,77.3734775 330.998643,86.7736112 C330.998643,90.6172786 329.693001,94.1515944 327.515261,97 C336.683796,96.6066393 344,89.1663905 344,80.0192727 C344,70.619139 336.280288,63 326.758309,63" id="Fill-7" fill-opacity="0.748754529" fill="#FFE100"></path>
                <path d="M327.29627,99 L106,99 L106,94.0557809 L327.29627,94.0557809 C335.405574,94.0557809 342.004125,87.5254564 342.004125,79.5 C342.004125,71.4735548 335.405574,64.9442191 327.29627,64.9442191 C322.40331,64.9442191 317.842076,67.344143 315.098342,71.3628043 L310.95876,68.5950304 C314.632727,63.2137424 320.739684,60 327.29627,60 C338.160299,60 347,68.7473124 347,79.5 C347,90.2516988 338.160299,99 327.29627,99" id="Fill-9" fill="#31343F"></path>
                <path d="M251.104444,65 C250.370925,55.0813702 253.519447,45.4693254 259.969809,37.9337889 C266.42017,30.3982524 275.399771,25.8418345 285.255187,25.1046186 C295.121625,24.3684112 304.661386,27.5361201 312.148896,34.0268472 C319.636406,40.5185828 324.162782,49.5557807 324.896302,59.4744105 C325.002522,60.9095107 325.027574,62.3617554 324.969453,63.7918131 L319.963083,63.5860784 C320.013187,62.3496534 319.992143,61.0920498 319.89895,59.8495737 C319.265638,51.2732618 315.35153,43.4593784 308.878121,37.8470576 C302.405713,32.2347368 294.145603,29.4946334 285.626957,30.133016 C277.106306,30.7713986 269.342223,34.7106124 263.765672,41.2255436 C258.188118,47.7404748 255.467482,56.0505419 256.100794,64.6258453 L251.104444,65 Z" id="Fill-11" fill="#31343F"></path>
                <path d="M232.358652,85 C228.903401,81.0475015 227,75.9832691 227,70.7412391 C227,58.7538914 236.807287,49 248.862497,49 C251.306283,49 253.708888,49.399545 256,50.1856497 L254.361769,54.9072723 C252.597984,54.3019617 250.747818,53.994312 248.862497,53.994312 C239.577515,53.994312 232.022167,61.5067562 232.022167,70.7412391 C232.022167,74.7796399 233.487635,78.6791987 236.148379,81.7237313 L232.358652,85 Z" id="Fill-13" fill="#31343F"></path>
                <polygon id="Fill-15" fill="#31343F" points="134 86 241 86 241 81 134 81"></polygon>
                <path d="M95.5939624,43 L0,43 L0,37.9766355 L95.5939624,37.9766355 C104.639514,37.9766355 111.998589,30.585257 111.998589,21.5 C111.998589,12.414743 104.639514,5.02336449 95.5939624,5.02336449 C86.5484111,5.02336449 79.1893355,12.414743 79.1893355,21.5 C79.1893355,22.6182009 79.3013671,23.7364019 79.5224294,24.8234579 L74.6230475,25.8291355 C74.333966,24.4125467 74.1879248,22.955771 74.1879248,21.5 C74.1879248,9.64485981 83.7906333,0 95.5939624,0 C107.397292,0 117,9.64485981 117,21.5 C117,33.3551402 107.397292,43 95.5939624,43" id="Fill-17" fill="#31343F"></path>
                <path d="M60.4017374,40 C60.1355739,38.8818243 60,37.7262413 60,36.5666142 C60,28.5341496 66.4437482,22 74.3628596,22 C76.6706067,22 78.9663913,22.5691979 81,23.6459223 L78.6942467,28.1267131 C77.3494731,27.4159739 75.8930504,27.0550438 74.3628596,27.0550438 C69.1911136,27.0550438 64.9843349,31.3225118 64.9843349,36.5666142 C64.9843349,37.3268928 65.0730561,38.0821164 65.246511,38.8110537 L60.4017374,40 Z" id="Fill-18" fill="#31343F"></path>
                <polygon id="Fill-19" fill="#31343F" points="24 43 70 43 70 38 24 38"></polygon>
            </g>
        </g>
    </g>
</svg>