<svg width="724" height="710" viewBox="0 0 724 710" xmlns="http://www.w3.org/2000/svg"><title>buildings</title><g fill="none" fill-rule="evenodd"><path fill="#DAE1E2" d="M536 437h31v-10h-31z"/><path d="M545.336 406H536v148h15V411.8c0-3.204-2.536-5.8-5.664-5.8z" fill="#DAE1E2"/><path fill="#DAE1E2" d="M536 459h31v-10h-31zM536 482h31v-10h-31z"/><path fill="#FFC26B" d="M523 649h126v-76H523z"/><path fill="#FF8F73" d="M534 583h115v-10H534zM649 615.147a20.116 20.116 0 0 0-2.35-.147c-11.386 0-20.65 9.472-20.65 21.117 0 4.233 1.22 8.315 3.53 11.808l.71 1.075 18.76-.014v-33.84z"/><path fill="#FFF" d="M637 649h12v-76h-12z"/><path d="M637 617.428V649l12-.01v-33.843a20.312 20.312 0 0 0-2.36-.147c-3.478 0-6.758.882-9.64 2.428" fill="#DAE1E2"/><path fill="#FF8F73" d="M523 649h28v-76h-28z"/><path fill="#DAE1E2" d="M637 583h12v-10h-12z"/><path d="M526 647h121v-71H526v71zm-5 5h131v-81H521v81z" fill="#31343F"/><path fill="#FAFAF8" d="M551 556h46v-17h-46z"/><path fill="#C8D0D1" d="M551 556h36v-17h-36z"/><path d="M553 554h41v-12h-41v12zm-5 5h51v-22h-51v22z" fill="#31343F"/><path d="M607.063 517h-67.126c-6.593 0-11.937 5.373-11.937 12 0 6.63 5.344 12 11.937 12h67.126c6.593 0 11.937-5.37 11.937-12 0-6.627-5.344-12-11.937-12" fill="#FAFAF8"/><path d="M597.99 517h-57.98c-6.634 0-12.01 5.373-12.01 12 0 6.63 5.376 12 12.01 12h57.98c6.634 0 12.01-5.37 12.01-12 0-6.627-5.376-12-12.01-12" fill="#FF666E"/><path d="M533.61 533.188c0-5.564 4.433-10.074 9.9-10.074H608c-2.063-3.65-5.924-6.114-10.358-6.114H539.95c-6.6 0-11.95 5.444-11.95 12.16 0 5.775 3.96 10.6 9.264 11.84a10.12 10.12 0 0 1-3.653-7.812" fill="#EC4A69"/><path d="M539.44 520c-5.206 0-9.44 4.26-9.44 9.5s4.234 9.5 9.44 9.5h67.12c5.206 0 9.44-4.26 9.44-9.5s-4.234-9.5-9.44-9.5h-67.12zm67.125 24h-67.13c-7.96 0-14.435-6.504-14.435-14.5s6.475-14.5 14.435-14.5h67.13c7.96 0 14.435 6.504 14.435 14.5s-6.475 14.5-14.435 14.5z" fill="#31343F"/><path fill="#DAE1E2" d="M598 649h37v-11h-37z"/><path d="M600 647h32v-6h-32v6zm-5 5h42v-16h-42v16z" fill="#31343F"/><path fill-opacity=".5" fill="#31343F" d="M606 638h21v-41h-21z"/><path d="M608 636h16v-36h-16v36zm-5 5h26v-46h-26v46z" fill="#31343F"/><path fill="#BCDCF6" d="M537 628h51v-36h-51z"/><path fill="#FF8F73" d="M537 634h53v-6h-53z"/><path fill-opacity=".246" fill="#3993DD" d="M537 628h13v-36h-13z"/><path d="M666.903 630.402c-2.835-6.677-8.49-9.402-16.227-9.402C640.36 621 632 629.33 632 639.6c0 3.853 1.175 7.432 3.19 10.4l46.115-.035A11.67 11.67 0 0 0 683 643.89c0-6.494-5.285-11.757-11.803-11.757-1.314 0-2.577.215-3.757.608l-.537-2.338z" fill="#7DC98E"/><path d="M650.308 621c-7.944 0-14.697 5.006-17.308 12.018 1.5 8.51 8.935 14.982 17.904 14.982a18.16 18.16 0 0 0 12.663-5.127c.794.155 1.615.24 2.454.24 5.54 0 10.238-3.536 11.98-8.462a11.648 11.648 0 0 0-7.39-2.63c-1.3 0-2.55.213-3.717.603l-.53-2.315c-2.805-6.61-8.402-9.308-16.055-9.308" fill="#A5E19C"/><path d="M539 626h46v-31h-46v31zm-5 5h56v-41h-56v41zM650.168 623c-8.915 0-16.168 7.225-16.168 16.106 0 2.79.713 5.494 2.072 7.894l43.212-.033A9.243 9.243 0 0 0 680 643.4c0-5.103-4.167-9.254-9.29-9.254a9.272 9.272 0 0 0-7.813 4.247l-4.246-2.73a14.327 14.327 0 0 1 5.354-4.9A16.156 16.156 0 0 0 650.168 623zm-16.798 29l-.75-1.107a20.918 20.918 0 0 1-3.62-11.796c0-11.633 9.502-21.097 21.18-21.097 7.917 0 15.082 4.353 18.73 11.233.585-.074 1.176-.11 1.775-.11 7.892 0 14.315 6.397 14.315 14.26a14.2 14.2 0 0 1-2.058 7.37l-.736 1.21-48.836.037z" fill="#31343F"/><path d="M650.49 556H516v17h141v-10.66c0-3.5-2.915-6.34-6.51-6.34" fill="#FAFAF8"/><path d="M637.792 556H516v17h128v-10.962c0-3.336-2.78-6.038-6.208-6.038" fill-opacity=".5" fill="#3993DD"/><path fill-opacity=".151" fill="#064971" d="M516 573h31v-17h-31z"/><path d="M518 570h136v-8.135c0-2.13-1.802-3.865-4.016-3.865H518v12zm141 5H513v-22h136.992c4.967 0 9.008 3.96 9.008 8.826V575zM508 652h216v-5H508zM600 415h-5.02v-49.902c0-1.144-.932-2.074-2.075-2.074h-11.988l-52.896 38.908v10.76H523V399.39L579.27 358h13.635c3.91 0 7.095 3.184 7.095 7.098V415zM108.207 603l-4.88-4.872A14.648 14.648 0 0 1 99 587.693c0-3.942 1.537-7.65 4.328-10.436l50.558-50.488c5.033-5.026 13.223-5.026 18.256 0L192 547.573l-3.607 3.434-19.817-20.763c-3.048-3.04-8.076-3.04-11.167.043l-50.557 50.488a9.71 9.71 0 0 0-2.87 6.917 9.71 9.71 0 0 0 2.87 6.916l1.354 1.353 32.46-32.414 3.522 3.518L108.206 603z" fill="#31343F"/><path d="M153.596 558L150 554.384l8.182-8.23a7.24 7.24 0 0 1 5.17-2.154c1.952 0 3.788.766 5.168 2.154l7.48 7.524-3.595 3.616-7.48-7.524c-.842-.845-2.306-.845-3.147 0l-8.182 8.23z" fill="#31343F"/><path d="M432 342h34" fill="#FFF"/><path fill="#3C628F" d="M432 345h34v-5h-34z"/><path d="M426.903 278h-43.98L305 363.39V661h127V283.106a5.1 5.1 0 0 0-5.097-5.106" fill-opacity=".503" fill="#3993DD"/><path d="M426.993 278H418v365.512L432 661V283.106c0-2.82-2.24-5.106-5.007-5.106" fill="#FFF"/><path d="M328 661h-23V530l17.514.145c3.037.025 5.486 2.445 5.486 5.424V661z" fill="#3993DD"/><path d="M307 658h122V282.606a2.607 2.607 0 0 0-2.602-2.606H383.52L307 363.86V658zm127 5H302V361.92L381.324 275h45.083c4.186 0 7.593 3.41 7.593 7.605V663zM83 677h290v-5H83zM593 710h41v-5h-41zM659 710h13v-5h-13zM295 710h9v-5h-9z" fill="#31343F"/><path fill="#FF666E" d="M190 675h125V517H190z"/><path fill="#FFF" d="M190 675h10V517h-10z"/><path d="M244.72 658.364c-.484 0-.957.04-1.425.1-2.145-8.86-10.15-15.464-19.673-15.464-6.554 0-12.537 3.074-16.34 8.295-1.178-.3-2.397-.46-3.636-.46-6.49 0-12.152 4.24-14.07 10.29-4.305.802-7.576 4.574-7.576 9.1 0 1.545.39 3.075 1.125 4.425l.64 1.173h51.47l.092.177h18.785l.63-1.216a11.127 11.127 0 0 0 1.258-5.157c0-6.21-5.06-11.263-11.28-11.263M307 675h9V517h-9z" fill="#EC4A69"/><path fill="#EC4A69" d="M190 525h125v-8H190zM297 562h12v-5h-12zM270 592h13v-5h-13zM259 661h13v-5h-13zM254 592h13v-5h-13zM260 598h13v-5h-13zM257 562h13v-5h-13zM220 536h13v-5h-13zM303 552h6v-5h-6zM299 610h11v-5h-11zM299 658h11v-5h-11zM303 619h6v-5h-6z"/><path fill="#C5D0D1" d="M190 525h10v-8h-10z"/><path d="M193 672.03h120V519.97H193v152.06zm-5 4.97h130V515H188v162z" fill="#31343F"/><path d="M325 468H181v44.887c0 2.27 1.86 4.113 4.157 4.113h135.686c2.296 0 4.157-1.843 4.157-4.113V468z" fill="#FFF"/><path d="M325 475H200.066c-3.903 0-7.066 3.17-7.066 7.084v31.245a3.665 3.665 0 0 0 3.66 3.67h124.68a3.666 3.666 0 0 0 3.66-3.67V475z" fill="#FFB473"/><path d="M184 470v42.366c0 .9.74 1.634 1.652 1.634h135.696c.912 0 1.652-.734 1.652-1.634V470H184zm137.34 49H185.66c-3.672 0-6.66-2.96-6.66-6.597V465h149v47.403c0 3.637-2.988 6.597-6.66 6.597z" fill="#31343F"/><path d="M350 658h82V427h-31.488c-3.408 0-6.173 2.725-6.173 6.086v42.937h-37.96c-3.524 0-6.38 2.816-6.38 6.29V658z" fill="#3993DD"/><path fill="#FF515C" d="M207 484h18v-25h-18z"/><path d="M210 482h13v-20h-13v20zm-5 5h23v-30h-23v30z" fill="#31343F"/><path fill="#FF515C" d="M207 449h18v-10h-18z"/><path d="M210 447h13v-5h-13v5zm-5 5h23v-15h-23v15z" fill="#31343F"/><path fill="#C8D0D1" d="M212 459h8v-10h-8z"/><path d="M214 457h3v-5h-3v5zm-5 5h13v-15h-13v15z" fill="#31343F"/><path fill="#ECE7F2" d="M417.34 419v37.31H373V708h164V419z"/><path fill="#FFF" d="M417 456h8v-37h-8zM373 707h8V456h-8z"/><path fill="#C8C8DD" d="M417 427h120v-9H417zM393 520h123v-9H393zM393 588h123v-9H393zM393 655h123v-9H393zM420.957 465H373v-27h49.29c4.26 0 7.71 3.517 7.71 7.854v9.932c0 5.088-4.05 9.214-9.043 9.214"/><path fill="#FFF" d="M523 706h13V427h-13z"/><path fill="#DAE1E2" d="M373 465h8v-9h-8zM523 428h13v-9h-13zM417 428h8v-9h-8z"/><path d="M375 705h159V421H419.34v37.31H375V705zm164 5H370V453.308h44.338V416H539v294z" fill="#3C628F"/><path d="M375 705h159V421H419.34v37.31H375V705zm164 5H370V453.308h44.338V416H539v294z" fill="#31343F"/><path d="M360.425 437h59.15c2.445 0 4.425 1.93 4.425 4.31v9.38c0 2.38-1.98 4.31-4.425 4.31h-59.15c-2.444 0-4.425-1.93-4.425-4.31v-9.38c0-2.38 1.98-4.31 4.425-4.31" fill="#FFF"/><path d="M367.102 443h43.796c1.714 0 3.102 1.35 3.102 3.013v5.974c0 1.664-1.388 3.013-3.102 3.013h-43.796c-1.714 0-3.102-1.35-3.102-3.013v-5.974c0-1.664 1.388-3.013 3.102-3.013" fill="#FFD196"/><path d="M360.925 440c-1.06 0-1.925.833-1.925 1.856v9.288c0 1.023.864 1.856 1.925 1.856h59.15c1.06 0 1.925-.833 1.925-1.856v-9.288c0-1.023-.864-1.856-1.925-1.856h-59.15zm59.15 18h-59.15c-3.82 0-6.925-3.042-6.925-6.782v-9.436c0-3.74 3.106-6.782 6.924-6.782h59.152c3.82 0 6.924 3.042 6.924 6.782v9.436c0 3.74-3.105 6.782-6.924 6.782zM108.006 674H103v-14.82c0-3.407 2.824-6.18 6.295-6.18H164v4.914h-54.705c-.71 0-1.29.568-1.29 1.266V674z" fill="#31343F"/><path fill="#31343F" d="M112 656h5v-63h-5zM122.086 674H117v-11h27v4.837h-21.914z"/><path fill="#31343F" d="M125 666h5v-10h-5zM160 658h-28v-45h28v11.146h-4.993v-6.154h-18.014v35.016h18.014v-15.06H160z"/><path d="M157 584v-7.297c0-2.046 1.604-3.703 3.582-3.703H167" fill="#FFF"/><path d="M159.84 584H155v-6.97c0-3.325 2.625-6.03 5.85-6.03H167v4.987h-6.15c-.557 0-1.01.468-1.01 1.044V584z" fill="#31343F"/><path d="M473.783 306H432v94h47v-88.824c0-2.86-2.336-5.176-5.217-5.176" fill="#FFD196"/><path d="M473.832 306H462v94h17v-88.824a5.172 5.172 0 0 0-5.168-5.176" fill="#FFF"/><path d="M341 358v230" fill="#31343F"/><path fill="#064971" d="M338 588h5V358h-5z"/><path d="M341 611v34" fill="#FFF"/><path fill="#31343F" d="M338 645h5v-34h-5z"/><path fill="#F0A48D" d="M432 400h10v-94h-10zM442 344h14v-10h-14zM442 362h14v-10h-14zM442 380h14v-10h-14z"/><path d="M435 397h42v-86.315c0-1.48-1.216-2.685-2.71-2.685H435v89zm47 5h-52v-99h44.275c4.26 0 7.725 3.44 7.725 7.668V402zM274.045 451L274 433.35 303.256 401l3.744 3.38-27.95 30.905.04 15.702zM274.022 466l-.022-5.983 4.978-.017.022 5.983z" fill="#31343F"/><path d="M375 688.535c1.11.293 2.272.465 3.475.465.934 0 1.845-.094 2.725-.274v-12.84c.238.007.474.018.714.018a23.31 23.31 0 0 0 4.198-.386 10.82 10.82 0 0 0 3.79 2.456c5.604 2.15 11.9-.625 14.062-6.197 1.276-3.287.817-6.807-.916-9.588A22.745 22.745 0 0 0 405 652.95C405 640.277 394.665 630 381.914 630c-2.41 0-4.73.368-6.914 1.05v57.485z" fill="#C8C8DD"/><path fill="#ADEFFF" d="M209 572h15v-30h-15z"/><path d="M212 569h10v-25h-10v25zm-5 5h20v-35h-20v35z" fill="#31343F"/><path fill="#FFC97C" d="M205 580h23v-8h-23z"/><path d="M208 577h18v-3h-18v3zm-5 5h28v-13h-28v13z" fill="#31343F"/><path fill="#ADEFFF" d="M244 571h15v-30h-15z"/><path d="M247 569h10v-25h-10v25zm-5 5h20v-35h-20v35z" fill="#31343F"/><path fill="#FFC97C" d="M240 580h23v-8h-23z"/><path d="M243 577h18v-3h-18v3zm-5 5h28v-13h-28v13z" fill="#31343F"/><path fill="#ADEFFF" d="M279 571h15v-30h-15z"/><path d="M281 569h10v-25h-10v25zm-5 5h20v-35h-20v35z" fill="#31343F"/><path fill="#FFC97C" d="M275 580h23v-8h-23z"/><path d="M277 577h18v-3h-18v3zm-5 5h28v-13h-28v13z" fill="#31343F"/><path fill="#ADEFFF" d="M209 635h15v-30h-15z"/><path d="M212 633h10v-25h-10v25zm-5 5h20v-35h-20v35z" fill="#31343F"/><path fill="#FFC97C" d="M205 644h23v-8h-23z"/><path d="M208 641h18v-3h-18v3zm-5 5h28v-13h-28v13z" fill="#31343F"/><path fill="#ADEFFF" d="M244 635h15v-30h-15z"/><path d="M247 633h10v-25h-10v25zm-5 5h20v-35h-20v35z" fill="#31343F"/><path fill="#FFC97C" d="M240 644h23v-8h-23z"/><path d="M243 641h18v-3h-18v3zm-5 5h28v-13h-28v13z" fill="#31343F"/><path fill="#ADEFFF" d="M279 635h15v-30h-15z"/><path d="M281 633h10v-25h-10v25zm-5 5h20v-35h-20v35z" fill="#31343F"/><path fill="#FFC97C" d="M275 644h23v-8h-23z"/><path d="M277 641h18v-3h-18v3zm-5 5h28v-13h-28v13z" fill="#31343F"/><path fill="#FFF" d="M401 511h23v-35h-23z"/><path d="M404 508h18v-30h-18v30zm-5 5h28v-40h-28v40z" fill="#31343F"/><path d="M401 493h23" fill="#FFF"/><path fill="#31343F" d="M401 496h23v-5h-23z"/><path fill="#FFF" d="M443 511h23v-35h-23z"/><path d="M446 508h18v-30h-18v30zm-5 5h28v-40h-28v40z" fill="#31343F"/><path d="M443 493h23" fill="#FFF"/><path fill="#31343F" d="M443 496h23v-5h-23z"/><path fill="#FFF" d="M485 511h23v-35h-23z"/><path d="M487 508h18v-30h-18v30zm-5 5h28v-40h-28v40z" fill="#31343F"/><path d="M485 493h23" fill="#FFF"/><path fill="#31343F" d="M485 496h23v-5h-23z"/><path d="M388 511h133" fill="#FFF"/><path fill="#31343F" d="M388 514h133v-5H388z"/><path fill="#FFF" d="M401 578h23v-35h-23z"/><path d="M404 576h18v-30h-18v30zm-5 5h28v-40h-28v40z" fill="#31343F"/><path d="M401 561h23" fill="#FFF"/><path fill="#31343F" d="M401 563h23v-5h-23z"/><path fill="#FFF" d="M443 578h23v-35h-23z"/><path d="M446 576h18v-30h-18v30zm-5 5h28v-40h-28v40z" fill="#31343F"/><path d="M443 561h23" fill="#FFF"/><path fill="#31343F" d="M443 563h23v-5h-23z"/><path fill="#FFF" d="M485 578h23v-35h-23z"/><path d="M487 576h18v-30h-18v30zm-5 5h28v-40h-28v40z" fill="#31343F"/><path d="M485 561h23" fill="#FFF"/><path fill="#31343F" d="M485 563h23v-5h-23z"/><path d="M388 579h133" fill="#FFF"/><path fill="#31343F" d="M388 581h133v-5H388z"/><path fill="#FFF" d="M401 646h23v-35h-23z"/><path d="M404 643h18v-30h-18v30zm-5 5h28v-40h-28v40z" fill="#31343F"/><path d="M401 628h23" fill="#FFF"/><path fill="#31343F" d="M401 631h23v-5h-23z"/><path fill="#FFF" d="M443 646h23v-35h-23z"/><path d="M446 643h18v-30h-18v30zm-5 5h28v-40h-28v40z" fill="#31343F"/><path d="M443 628h23" fill="#FFF"/><path fill="#31343F" d="M443 631h23v-5h-23z"/><path fill="#FFF" d="M485 646h23v-35h-23z"/><path d="M487 643h18v-30h-18v30zm-5 5h28v-40h-28v40z" fill="#31343F"/><path d="M485 628h23" fill="#FFF"/><path fill="#31343F" d="M485 631h23v-5h-23z"/><path d="M388 646h133" fill="#FFF"/><path fill="#31343F" d="M388 649h133v-5H388z"/><path d="M432 344h34" fill="#FFF"/><path fill="#31343F" d="M432 347h34v-5h-34z"/><path d="M432 362h34" fill="#FFF"/><path fill="#31343F" d="M432 365h34v-5h-34z"/><path d="M432 380h34" fill="#FFF"/><path fill="#31343F" d="M432 382h34v-5h-34z"/><path d="M525.994 680c-6.503 0-12.195 3.532-15.36 8.795-.49-.062-.988-.104-1.495-.104-6.694 0-12.14 5.532-12.14 12.33 0 1.952.47 3.905 1.354 5.646l.678 1.334h42.284l.677-1.334a18.32 18.32 0 0 0 2.007-8.373c0-10.087-8.077-18.293-18.006-18.293" fill="#C8C8DD"/><path d="M379.862 414H375v-12.124c0-2.688 2.085-4.876 4.646-4.876H389v5.102h-9.138V414zM358.862 414H354v-12.124c0-2.688 2.085-4.876 4.646-4.876H368v5.102h-9.138V414zM399.862 382H395v-12.124c0-2.69 2.085-4.876 4.646-4.876H409v5.102h-9.138V382zM379.862 382H375v-12.124c0-2.69 2.085-4.876 4.646-4.876H389v5.102h-9.138V382zM358.862 382H354v-12.124c0-2.69 2.085-4.876 4.646-4.876H368v5.102h-9.138V382zM399.862 351H395v-12.124c0-2.69 2.085-4.876 4.646-4.876H409v5.102h-9.138V351zM379.862 351H375v-12.124c0-2.69 2.085-4.876 4.646-4.876H389v5.102h-9.138V351zM358.862 351H354v-12.124c0-2.69 2.085-4.876 4.646-4.876H368v5.102h-9.138V351zM399.862 320H395v-12.124c0-2.69 2.085-4.876 4.646-4.876H409v5.102h-9.138V320z" fill="#064971"/><path d="M506.06 707a9.638 9.638 0 0 1-1.06-4.396c0-5.304 4.253-9.604 9.5-9.604 5.246 0 9.5 4.3 9.5 9.604a9.65 9.65 0 0 1-1.06 4.396h-16.88z" fill="#A5E19C"/><path d="M507.26 704h13.48a7.06 7.06 0 0 0 .26-1.91c0-3.91-3.14-7.09-7-7.09s-7 3.18-7 7.09c0 .653.088 1.29.26 1.91zm16.714 5h-19.95l-.686-1.345A12.062 12.062 0 0 1 502 702.11c0-6.677 5.384-12.11 12-12.11s12 5.433 12 12.11c0 1.942-.45 3.807-1.338 5.545l-.688 1.345z" fill="#31343F"/><path d="M517.73 707a15.906 15.906 0 0 1-1.73-7.22c0-8.716 6.94-15.78 15.5-15.78 8.56 0 15.5 7.064 15.5 15.78 0 2.603-.63 5.054-1.728 7.22H517.73z" fill="#7DC98E"/><path d="M518.847 704h24.306a13.34 13.34 0 0 0 .847-4.704c0-7.33-5.832-13.296-13-13.296s-13 5.965-13 13.296c0 1.625.285 3.2.847 4.704zm27.45 5h-30.592l-.697-1.37A18.276 18.276 0 0 1 513 699.27c0-10.073 8.075-18.268 18-18.268 9.926 0 18 8.195 18 18.268 0 2.93-.675 5.744-2.007 8.362l-.696 1.37z" fill="#31343F"/><path d="M445.88 685.884l-.265.014c-1.485-9.57-9.69-16.898-19.623-16.898-9.063 0-16.71 6.098-19.106 14.437 0 0-3.262-.64-5-.64-10.984 0-19.886 8.955-19.886 20 0 2.166.342 4.25.974 6.203h75.823a15.205 15.205 0 0 0 2.203-7.908c0-8.4-6.77-15.208-15.12-15.208" fill="#C8C8DD"/><path d="M227.06 673a9.64 9.64 0 0 1-1.06-4.396c0-5.304 4.254-9.604 9.5-9.604 5.247 0 9.5 4.3 9.5 9.604a9.65 9.65 0 0 1-1.06 4.396h-16.88z" fill="#7DC98E"/><path d="M228.26 671h13.48a7.06 7.06 0 0 0 .26-1.91c0-3.91-3.14-7.09-7-7.09s-7 3.18-7 7.09c0 .653.087 1.29.26 1.91zm16.715 5h-19.95l-.687-1.345A12.065 12.065 0 0 1 223 669.11c0-6.677 5.383-12.11 12-12.11s12 5.433 12 12.11c0 1.943-.45 3.808-1.337 5.545l-.688 1.345z" fill="#31343F"/><path fill-opacity=".5" fill="#31343F" d="M469 453h12v-15h-12z"/><path d="M471 450h7v-10h-7v10zm-5 5h17v-20h-17v20z" fill="#31343F"/><path d="M398 641.73c0-13.106-10.745-23.73-24-23.73s-24 10.624-24 23.73c0 6.892 2.976 13.096 7.722 17.433h-.004a13.7 13.7 0 0 0-1.345 5.94c0 7.676 6.29 13.897 14.053 13.897.97 0 1.918-.097 2.832-.282V665.44c.247.008.494.02.742.02 1.49 0 2.948-.142 4.363-.4a11.294 11.294 0 0 0 3.94 2.542c5.826 2.22 12.372-.648 14.62-6.408 1.325-3.4.848-7.038-.953-9.914a23.41 23.41 0 0 0 2.03-9.55" fill="#A5E19C"/><path d="M397 642.223c0-7.857-3.708-14.832-9.44-19.223a22.508 22.508 0 0 1 3.34 11.838c0 3.9-.986 7.567-2.715 10.758a8.41 8.41 0 0 1 2.81 6.29c0 4.628-3.692 8.38-8.247 8.38-3.034 0-5.678-1.67-7.11-4.152-2.12.692-4.38 1.07-6.725 1.07-8.047 0-15.08-4.397-18.913-10.953a24.12 24.12 0 0 0 7.283 13.663h-.004a14.208 14.208 0 0 0-1.328 6.022c0 7.78 6.204 14.085 13.858 14.085.956 0 1.89-.1 2.793-.286v-13.457c.243.007.487.018.73.018 1.472 0 2.908-.143 4.304-.403a11.11 11.11 0 0 0 3.884 2.575c5.747 2.252 12.2-.657 14.417-6.495a11.468 11.468 0 0 0-.938-10.048c1.282-2.962 2-6.235 2-9.68" fill="#7DC98E"/><path d="M373 687v-22" fill="#FFF"/><path fill="#31343F" d="M370 687h5v-22h-5z"/><path d="M378.762 662.517l.884.888a8.744 8.744 0 0 0 3.065 2.004c4.53 1.75 9.635-.52 11.38-5.054 1.747-4.535-.517-9.65-5.045-11.4a8.873 8.873 0 0 0-3.444-.588l-.16-5.03c1.85-.064 3.672.252 5.414.925a13.77 13.77 0 0 1 3.613 2.067c.354-1.56.533-3.164.533-4.796C395 629.66 385.355 620 373.5 620s-21.5 9.66-21.5 21.534c0 11.874 9.645 21.535 21.5 21.535 1.056 0 3.26-.275 4.02-.38l1.242-.173zm7.09 8.483c-1.65 0-3.327-.3-4.956-.927a13.74 13.74 0 0 1-3.868-2.278c-1.04.124-2.526.278-3.528.278-14.612 0-26.5-11.905-26.5-26.538 0-14.63 11.888-26.535 26.5-26.535 14.613 0 26.5 11.905 26.5 26.535 0 3.29-.59 6.482-1.753 9.51 1.65 3.35 1.952 7.35.508 11.1-2.113 5.484-7.357 8.855-12.904 8.855z" fill="#31343F"/><path d="M369.815 681c-8.72 0-15.815-7.227-15.815-16.11 0-2.41.51-4.727 1.516-6.89l4.453 2.15a11.16 11.16 0 0 0-1.043 4.74c0 6.116 4.885 11.09 10.888 11.09.74 0 1.48-.074 2.197-.225l.988 4.918a15.593 15.593 0 0 1-3.185.327" fill="#31343F"/><path d="M429.262 684.463l-.257.012C427.558 675.145 419.56 668 409.88 668c-8.835 0-16.29 5.945-18.624 14.075 0 0-3.18-.622-4.873-.622-10.705 0-19.383 8.73-19.383 19.5 0 2.11.333 4.143.95 6.047h73.903a14.817 14.817 0 0 0 2.147-7.71c0-8.19-6.597-14.827-14.738-14.827" fill="#7DC98E"/><path d="M370 690.567c4.308 8.557 13.184 14.433 23.442 14.433 10.95 0 20.328-6.694 24.252-16.2A11.66 11.66 0 0 0 428 679.017 19.57 19.57 0 0 0 410.37 668c-8.936 0-16.477 5.933-18.84 14.048 0 0-3.214-.62-4.928-.62-7.004 0-13.134 3.655-16.602 9.14" fill="#A5E19C"/><path d="M427.03 701c6.83 0 12.423-5.278 12.97-11.987a14.807 14.807 0 0 0-9.46-4.013c.067.623.11 1.254.11 1.895 0 5.573-2.604 10.528-6.65 13.736.974.234 1.985.37 3.03.37" fill="#9CE192"/><path d="M443.76 710h-77.127l-.56-1.75a22.75 22.75 0 0 1-1.073-6.925c0-12.31 9.814-22.325 21.877-22.325 5.07 0 10.01 1.81 13.915 5.098l-3.165 3.916a16.72 16.72 0 0 0-10.75-3.94c-9.32 0-16.904 7.74-16.904 17.25 0 1.22.124 2.424.368 3.6h70.54a12.722 12.722 0 0 0 1.147-5.286c0-6.898-5.498-12.508-12.257-12.508v-5.076c9.5 0 17.23 7.888 17.23 17.584 0 3.235-.868 6.397-2.513 9.146L443.76 710z" fill="#31343F"/><path d="M428.306 700l-4.142-2.764a16.773 16.773 0 0 0 2.85-9.38c0-9.312-7.6-16.887-16.944-16.887-7.504 0-14.2 5.01-16.28 12.188l-4.79-1.38c2.693-9.29 11.358-15.778 21.07-15.778 12.092 0 21.93 9.804 21.93 21.855 0 4.347-1.277 8.547-3.694 12.145M190 481h5v-13h-5zM190 516h5v-21h-5zM203 516h5v-9h-5zM235 500h5v-32h-5zM249 494h5v-26h-5zM302 495h5v-19h-5zM262 508h5v-40h-5zM276 508h5v-40h-5zM289 508h5v-40h-5zM48 677h20v-5H48zM594 508h5v-33h-5zM594 439h5v-13h-5zM537 440h40v-5h-40zM537 462h40v-5h-40zM537 484h40v-5h-40zM586 361h5v-20h-5zM416 279h5v-17h-5zM400 279h5v-17h-5z" fill="#31343F"/><path d="M406.58 399h133.84c1.978 0 3.58 1.628 3.58 3.636v12.728c0 2.008-1.602 3.636-3.58 3.636H406.58c-1.977 0-3.58-1.628-3.58-3.636v-12.728c0-2.008 1.603-3.636 3.58-3.636" fill="#FFF"/><path d="M413.65 406h114.7c1.465 0 2.65 1.216 2.65 2.718v7.564c0 1.5-1.185 2.718-2.65 2.718h-114.7c-1.464 0-2.65-1.217-2.65-2.718v-7.564c0-1.502 1.186-2.718 2.65-2.718" fill="#FFD196"/><path d="M407.084 401c-.598 0-1.084.496-1.084 1.106v12.788c0 .61.486 1.106 1.084 1.106h133.832c.598 0 1.084-.497 1.084-1.106v-12.788c0-.61-.486-1.106-1.084-1.106H407.084zm133.842 20H407.074c-3.348 0-6.074-2.76-6.074-6.153v-12.694c0-3.393 2.726-6.153 6.074-6.153h133.852c3.35 0 6.074 2.76 6.074 6.153v12.694c0 3.393-2.725 6.153-6.074 6.153zM190 635v30M188 665h5v-30h-5z" fill="#31343F"/><path d="M191 638c-8.284 0-15-6.6-15-14.74v-21.52c0-8.14 6.716-14.74 15-14.74 8.284 0 15 6.6 15 14.74v21.52c0 8.14-6.716 14.74-15 14.74" fill="#7DC98E"/><path d="M187 630c-6.075 0-11-4.966-11-11.09v-20.82c0-6.125 4.925-11.09 11-11.09 6.076 0 11 4.965 11 11.09v20.82c0 6.124-4.924 11.09-11 11.09" fill="#A5E19C"/><path d="M190.5 590c-6.892 0-12.5 5.492-12.5 12.243v21.513c0 6.752 5.608 12.244 12.5 12.244s12.5-5.492 12.5-12.244v-21.513c0-6.75-5.608-12.243-12.5-12.243m0 51c-9.65 0-17.5-7.732-17.5-17.238v-21.525c0-9.505 7.85-17.237 17.5-17.237s17.5 7.732 17.5 17.237v21.525c0 9.506-7.85 17.238-17.5 17.238" fill="#31343F"/><path d="M178 614s-7-3.235-7-7.226v-10.55c0-3.99 3.135-7.224 7-7.224 3.866 0 7 3.235 7 7.225v2.82" fill="#A5E19C"/><path d="M177.5 616c-5.238 0-9.5-4.363-9.5-9.727v-10.548c0-5.362 4.262-9.725 9.5-9.725 5.24 0 9.5 4.363 9.5 9.725v2.818h-4.886v-2.818c0-2.604-2.07-4.723-4.614-4.723-2.545 0-4.614 2.12-4.614 4.723v10.548c0 2.606 2.07 4.725 4.614 4.725V616z" fill="#31343F"/><path d="M695.636 632.262A7.01 7.01 0 0 1 691 634c-3.866 0-7-3.105-7-6.936v-10.127c0-3.83 3.134-6.937 7-6.937s7 3.106 7 6.937v2.704l-2.364 12.622z" fill="#7DC98E"/><path d="M691.5 636c-5.237 0-9.5-4.235-9.5-9.44v-10.12c0-5.206 4.263-9.44 9.5-9.44s9.5 4.234 9.5 9.44v2.702h-5.04v-2.703c0-2.444-2.002-4.432-4.46-4.432s-4.46 1.988-4.46 4.43v10.123c0 2.444 2.002 4.432 4.46 4.432 1.09 0 2.138-.395 2.953-1.11l3.34 3.75A9.518 9.518 0 0 1 691.5 636" fill="#31343F"/><path d="M694 621c-8.836 0-16-7.117-16-15.897v-23.206c0-8.78 7.164-15.897 16-15.897s16 7.117 16 15.897v23.206c0 8.78-7.164 15.897-16 15.897" fill="#7DC98E"/><path d="M689.658 610h-.316c-6.265 0-11.342-5.13-11.342-11.455v-21.09c0-6.325 5.077-11.455 11.342-11.455h.316c6.265 0 11.342 5.13 11.342 11.456v21.09c0 6.325-5.077 11.454-11.342 11.454" fill="#A5E19C"/><path d="M693.5 569c-7.443 0-13.5 6.005-13.5 13.388v23.224c0 7.383 6.057 13.388 13.5 13.388s13.5-6.005 13.5-13.388v-23.224c0-7.383-6.057-13.388-13.5-13.388m0 55c-10.2 0-18.5-8.257-18.5-18.405v-23.19c0-10.15 8.3-18.405 18.5-18.405s18.5 8.256 18.5 18.405v23.19c0 10.148-8.3 18.405-18.5 18.405" fill="#31343F"/><path d="M695 622v27" fill="#FFF"/><path fill="#31343F" d="M693 649h5v-27h-5z"/><path d="M704 592c4.418 0 8-3.623 8-8.092v-11.814c0-4.47-3.582-8.094-8-8.094s-8-.118-8 4.35l7.518 6.937L704 592z" fill="#7DC98E"/><path d="M708 571.5a6.5 6.5 0 1 1-13 0 6.5 6.5 0 0 1 13 0" fill="#A5E19C"/><path d="M704.5 594v-4.987c3.064 0 5.555-2.514 5.555-5.603v-11.82c0-3.09-2.49-5.603-5.555-5.603-3.063 0-5.555 2.514-5.555 5.603v3.157H694v-3.157c0-5.84 4.71-10.59 10.5-10.59s10.5 4.75 10.5 10.59v11.82c0 5.84-4.71 10.59-10.5 10.59M694 605c-6.066 0-11-4.934-11-11h4.874a6.133 6.133 0 0 0 6.126 6.126V605zM557.553 619L554 615.447 578.447 591l3.553 3.553zM569.602 622L566 618.398 576.398 608l3.602 3.602z" fill="#31343F"/><path d="M326.142 443h-8.284c-2.13 0-3.858-1.738-3.858-3.883v-38.234c0-2.145 1.728-3.883 3.858-3.883h8.284c2.13 0 3.858 1.738 3.858 3.883v38.234c0 2.145-1.727 3.883-3.858 3.883M326.65 387h-9.3c-1.85 0-3.35-1.48-3.35-3.31v-7.38c0-1.828 1.5-3.31 3.35-3.31h9.3c1.85 0 3.35 1.482 3.35 3.31v7.38c0 1.83-1.5 3.31-3.35 3.31" fill="#3993DD"/><path d="M213.554 643c-7.067 0-13.255 3.69-16.66 9.208l-.002.002a13.76 13.76 0 0 0-4.93-.91c-6.594 0-12.088 4.616-13.287 10.726 0 0 2.493-.002-.08-.002-4.196 0-7.595 3.327-7.595 7.43 0 1.284.333 2.493.92 3.546h57.7c2.096-3.037 3.38-7.036 3.38-10.976 0-10.507-8.706-19.024-19.446-19.024" fill="#7DC98E"/><path d="M213.042 643c-6.96 0-13.055 3.748-16.408 9.355l-.002.002a13.188 13.188 0 0 0-4.855-.925c-6.494 0-11.906 4.69-13.087 10.895h-.08a7.42 7.42 0 0 0-5.61 2.57c2.22 2.292 5.314 3.718 8.74 3.718 3.97 0 7.485-1.916 9.72-4.872 3.562 4.994 9.357 8.257 15.92 8.257 10.835 0 19.62-8.865 19.62-19.8 0-1.17-.12-2.31-.313-3.425-3.474-3.562-8.3-5.775-13.645-5.775" fill="#A5E19C"/><path d="M169.94 676l-.714-1.287a9.777 9.777 0 0 1-1.226-4.735c0-5.465 4.534-9.913 10.105-9.913 3.292 0 6.387 1.58 8.28 4.23l-4.12 2.83a5.114 5.114 0 0 0-4.16-2.125c-2.798 0-5.074 2.234-5.074 4.978 0 .368.042.733.122 1.087h54.552a17.484 17.484 0 0 0 2.265-8.532c0-9.152-7.592-16.598-16.92-16.598-5.984 0-11.404 3.004-14.5 8.036l-4.307-2.55C198.26 644.896 205.29 641 213.05 641c12.102 0 21.95 9.66 21.95 21.533 0 4.352-1.388 8.864-3.81 12.38l-.748 1.086h-60.5z" fill="#31343F"/><path d="M180.965 663l-4.965-.952c1.453-7.56 8.113-13.048 15.833-13.048A16.162 16.162 0 0 1 205 655.808l-4.127 2.917a11.095 11.095 0 0 0-9.04-4.676c-5.3 0-9.87 3.763-10.868 8.95M322 710h259v-5H322z" fill="#31343F"/><g><path d="M95.938 22C87.658 22 80.632 27.32 78 34.743a18.876 18.876 0 0 1 7.045-1.37c10.528 0 19.062 8.59 19.062 19.186 0 2.263-.41 4.424-1.124 6.44A19.175 19.175 0 0 0 115 41.184C115 30.59 106.466 22 95.938 22zM288.136 49A34.28 34.28 0 0 0 268 55.512c20.923 1.51 37.553 16.323 41.747 36.488 2.015-5.415 6.905-8.187 12.253-9.298C321.83 63.654 307.123 49 288.136 49M235 76.146C237.028 86.33 245.924 94 256.597 94c.135 0 .267-.018.403-.02a35.305 35.305 0 0 1-2.142-12.152c0-3.635.548-7.142 1.563-10.438a19.45 19.45 0 0 0-7.197-1.39c-5.594 0-10.632 2.366-14.223 6.146" fill-opacity=".749" fill="#FFE100"/><path d="M326.758 83A17.274 17.274 0 0 0 313 89.792c.253-.01.502-.038.757-.038 9.522 0 17.242 7.62 17.242 17.02 0 3.843-1.307 7.378-3.485 10.226 9.17-.393 16.485-7.834 16.485-16.98 0-9.4-7.72-17.02-17.242-17.02" fill-opacity=".749" fill="#FFE100"/><path d="M327.296 119H106v-4.944h221.296c8.11 0 14.708-6.53 14.708-14.556s-6.598-14.556-14.708-14.556a14.75 14.75 0 0 0-12.198 6.42l-4.14-2.77c3.675-5.38 9.782-8.594 16.338-8.594C338.16 80 347 88.747 347 99.5c0 10.752-8.84 19.5-19.704 19.5" fill="#31343F"/><path d="M251.104 85c-.733-9.92 2.415-19.53 8.866-27.066 6.45-7.536 15.43-12.092 25.285-12.83 9.867-.736 19.406 2.432 26.894 8.923 7.486 6.492 12.013 15.53 12.746 25.447.107 1.436.132 2.888.073 4.318l-5.007-.206a32.54 32.54 0 0 0-.064-3.736c-.634-8.577-4.548-16.39-11.022-22.003-6.472-5.612-14.732-8.352-23.25-7.714-8.522.638-16.286 4.578-21.862 11.093-5.578 6.514-8.3 14.825-7.665 23.4l-4.996.374z" fill="#31343F"/><path d="M232.36 105A21.663 21.663 0 0 1 227 90.74C227 78.755 236.807 69 248.862 69c2.444 0 4.847.4 7.138 1.186l-1.638 4.72a16.903 16.903 0 0 0-5.5-.912c-9.284 0-16.84 7.513-16.84 16.747 0 4.04 1.466 7.94 4.126 10.984l-3.79 3.276z" fill="#31343F"/><path fill="#31343F" d="M134 106h107v-5H134zM95.594 63H0v-5.023h95.594C104.64 57.977 112 50.585 112 41.5s-7.36-16.477-16.406-16.477S79.19 32.415 79.19 41.5c0 1.118.11 2.236.332 3.323l-4.9 1.006a21.698 21.698 0 0 1-.434-4.33c0-11.855 9.603-21.5 21.406-21.5C107.397 20 117 29.645 117 41.5S107.397 63 95.594 63"/><path d="M60.402 60A14.848 14.848 0 0 1 60 56.567C60 48.534 66.444 42 74.363 42c2.308 0 4.603.57 6.637 1.646l-2.306 4.48a9.173 9.173 0 0 0-4.33-1.07c-5.173 0-9.38 4.267-9.38 9.51 0 .76.09 1.516.263 2.245L60.402 60z" fill="#31343F"/><path fill="#31343F" d="M24 63h46v-5H24z"/></g></g></svg>