<svg width="122" height="50" viewBox="0 0 122 50" xmlns="http://www.w3.org/2000/svg"><title>fomo</title><g fill="none" fill-rule="evenodd"><path d="M98.145 14.618c0-4.393 4.394-8.054 9.576-8.054 5.184 0 9.578 3.66 9.578 8.054 0 4.393-4.394 7.998-9.577 7.998-5.18 0-9.575-3.605-9.575-7.998z" fill="#FFE100"/><path d="M28.145 24.618c0-4.393 4.394-8.054 9.576-8.054 5.184 0 9.578 3.66 9.578 8.054 0 4.393-4.394 7.998-9.577 7.998-5.18 0-9.575-3.605-9.575-7.998z" fill="#3993DD"/><path d="M109.72 3.564c-4.647 0-8.575 3.23-8.575 7.054 0 3.793 3.928 6.997 8.576 6.997 4.65 0 8.578-3.204 8.578-6.997 0-3.824-3.928-7.054-8.577-7.054m.07 17.697c-6.732 0-12.21-4.768-12.21-10.63C97.58 4.768 103.058 0 109.79 0 116.523 0 122 4.768 122 10.63c0 5.862-5.477 10.63-12.21 10.63M40.83 14c-4.65 0-8.578 3.23-8.578 7.052 0 3.793 3.928 6.997 8.577 6.997 4.648 0 8.575-3.205 8.575-6.998 0-3.823-3.927-7.053-8.576-7.053m.068 17.696c-6.733 0-12.21-4.77-12.21-10.63 0-5.863 5.477-10.632 12.21-10.632 6.732 0 12.21 4.77 12.21 10.63 0 5.863-5.478 10.632-12.21 10.632m55.42 15.656c-4.406 0-9.113-2.793-9.113-10.63V18.08c0-2.89-1.244-4.07-4.295-4.07-2.864 0-4.392 1.256-5.478 2.564v13.164c0 .813-.81 1.45-1.845 1.45-.726 0-1.732-.483-1.732-1.394V18.08c0-2.89-1.244-4.07-4.295-4.07-2.864 0-4.393 1.256-5.48 2.564v13.164c0 .813-.81 1.45-1.843 1.45-.726 0-1.733-.483-1.733-1.394v-17.29c0-.67.483-1.45 1.845-1.45.938 0 1.47.448 1.655.99 1.31-.933 3.014-1.61 5.555-1.61 2.9 0 5.15.953 6.485 2.714 1.32-1.335 3.302-2.714 6.865-2.714 4.93 0 7.873 2.732 7.873 7.308v19.093c0 4.67 1.847 6.94 5.647 6.94 3.5 0 4.746-1.577 4.746-3.055 0-1.086-.545-1.76-1.423-1.76-.104 0-.26 0-.587.327l-.157.16c-.343.352-.73.753-1.34.753-.774 0-1.96-.826-1.96-1.845 0-.663.373-1.128 1.06-1.753.754-.678 1.792-1.05 2.928-1.05 2.88 0 5.055 2.2 5.055 5.113 0 3.085-2.21 6.687-8.435 6.687M1.733 50C1.007 50 0 49.515 0 48.605v-36.72c0-.242.078-1.45 1.62-1.45h19.83c.812 0 1.45.785 1.45 1.788 0 .726-.485 1.732-1.395 1.732H3.577v11.857c.947-.587 2.142-1.073 3.507-1.073 1.573 0 3.19.35 4.753.69 1.434.31 2.79.605 3.98.605 2.048 0 3.223-1.2 3.925-1.916l.338-.345c.374-.384.76-.78 1.37-.78.683 0 1.957.976 1.957 1.9 0 .513-.272 1.024-.857 1.608-1.92 2.027-4.256 3.11-6.734 3.11-1.58 0-3.217-.355-4.8-.696-1.427-.31-2.776-.6-3.932-.6-.813 0-2.28.725-3.507 2.077V48.55c0 .813-.81 1.45-1.844 1.45" fill="#31343F"/></g></svg>